<?xml version="1.0" encoding="utf-8"?>
<!-- Generator: Adobe Illustrator 24.3.0, SVG Export Plug-In . SVG Version: 6.00 Build 0)  -->
<svg version="1.1" id="Layer_1" xmlns="http://www.w3.org/2000/svg" xmlns:xlink="http://www.w3.org/1999/xlink" x="0px" y="0px"
	 viewBox="0 0 352.3 415.1" style="enable-background:new 0 0 352.3 415.1;" xml:space="preserve">
<style type="text/css">
	.st0{opacity:6.691327e-02;fill:#2E2F5B;enable-background:new    ;}
	.st1{fill:#FFFFFF;}
	.st2{opacity:8.440115e-02;clip-path:url(#SVGID_4_);}
	.st3{opacity:8.440115e-02;clip-path:url(#SVGID_6_);}
	.st4{opacity:8.440115e-02;clip-path:url(#SVGID_8_);}
	.st5{opacity:8.440115e-02;clip-path:url(#SVGID_10_);}
	.st6{opacity:8.440115e-02;clip-path:url(#SVGID_12_);}
	.st7{opacity:0.26;clip-path:url(#SVGID_14_);}
	.st8{opacity:0.26;clip-path:url(#SVGID_16_);}
	.st9{opacity:0.26;clip-path:url(#SVGID_18_);}
	.st10{opacity:0.26;clip-path:url(#SVGID_20_);}
	.st11{opacity:0.26;clip-path:url(#SVGID_22_);}
	.st12{opacity:0.4892;}
	.st13{fill:none;stroke:#23254C;stroke-width:1;stroke-miterlimit:9.9999;}
	.st14{opacity:8.440115e-02;clip-path:url(#SVGID_24_);}
	.st15{fill:#23254C;}
	.st16{opacity:8.440115e-02;clip-path:url(#SVGID_26_);}
	.st17{opacity:8.440115e-02;clip-path:url(#SVGID_28_);}
	.st18{opacity:8.440115e-02;clip-path:url(#SVGID_30_);}
	.st19{opacity:8.440115e-02;clip-path:url(#SVGID_32_);}
	.st20{opacity:0.26;clip-path:url(#SVGID_34_);}
	.st21{opacity:0.26;clip-path:url(#SVGID_36_);}
	.st22{opacity:0.26;clip-path:url(#SVGID_38_);}
	.st23{opacity:0.26;clip-path:url(#SVGID_40_);}
	.st24{opacity:0.26;clip-path:url(#SVGID_42_);}
	.st25{fill:none;stroke:#23254C;stroke-width:2;stroke-miterlimit:9.9999;}
	.st26{fill:#2E2F5B;}
	.st27{fill:#282B49;}
	.st28{opacity:9.913713e-02;fill:#2E2F5B;enable-background:new    ;}
	.st29{fill:#FCBF10;}
	.st30{fill:#FFFFFF;stroke:#E6E5E7;stroke-miterlimit:10;}
	.st31{fill:#C9952C;}
	.st32{fill:#1A1D39;}
	.st33{opacity:0.583;}
	.st34{opacity:0.3015;fill:#FFFFFF;enable-background:new    ;}
	.st35{fill:#86899E;}
	.st36{fill:#FFFFFF;stroke:#23254C;stroke-width:0.75;stroke-miterlimit:10;}
	.st37{fill:#FFFFFF;stroke:#86899E;stroke-miterlimit:10;}
	.st38{opacity:0.3015;fill:#FFFFFF;stroke:#23254C;stroke-miterlimit:10;enable-background:new    ;}
	.st39{opacity:0.827;fill:none;stroke:#86899E;stroke-miterlimit:10;stroke-dasharray:5,10;enable-background:new    ;}
	.st40{opacity:0.8055;fill:none;stroke:#86899E;stroke-miterlimit:10;stroke-dasharray:5,10;enable-background:new    ;}
</style>
<g>
	<circle class="st0" cx="179.5" cy="132.6" r="127"/>
	<g>
		
			<ellipse transform="matrix(0.7071 -0.7071 0.7071 0.7071 -36.4887 166.906)" class="st1" cx="183.2" cy="127.5" rx="126.5" ry="126.5"/>
		<g>
			<g>
				
					<ellipse id="SVGID_1_" transform="matrix(0.7071 -0.7071 0.7071 0.7071 -36.4887 166.906)" class="st1" cx="183.2" cy="127.5" rx="126.5" ry="126.5"/>
			</g>
			<g>
				<defs>
					
						<ellipse id="SVGID_2_" transform="matrix(0.7071 -0.7071 0.7071 0.7071 -36.4887 166.906)" cx="183.2" cy="127.5" rx="126.5" ry="126.5"/>
				</defs>
				<clipPath id="SVGID_4_">
					<use xlink:href="#SVGID_2_"  style="overflow:visible;"/>
				</clipPath>
				<g class="st2">
					<path class="st1" d="M174.1,254.7c-5.6,0.5-11.2-2.4-14.9-6.7s-5.7-9.8-6.6-15.4c-0.5-2.7-0.7-5.6-1.9-8.1
						c-0.9-1.9-2.4-3.5-3.1-5.6c-1.1-3.5,0.5-7.4,0-11c-0.5-3.7-3.1-6.9-3.4-10.7c-0.3-3.4,1.4-6.9,0.4-10.1
						c-1.2-4.1-5.9-5.8-9.6-7.9c-5.3-2.9-9.7-7.3-12.6-12.6c-1.1-2-1.9-4.2-1.6-6.4c0.5-3.8,4.1-6.3,7-8.9s5.4-6.9,3.2-10.1
						c-1.8-2.6-5.6-2.7-8.4-4.2c-4.5-2.4-6.1-8.3-10.2-11.4c-1.7-1.3-3.8-1.9-5.9-2.6c-1.2-0.4-2.4-0.8-3.6-1.2
						c-3.5-1.1-7-2.3-10.7-2.8c-2.3-0.4-4.8-0.5-6.9-1.4c-2.2-0.9-4.1-2.9-4.2-5.2c0-1.9,1.2-3.6,1.5-5.5c0.8-3.8-1.9-7.6-5.1-9.9
						c-3.2-2.3-7-3.7-10-6.2c-4.5-3.6-7.1-9.4-6.8-15.2h0.2C66.1,60,74.2,47.4,84.6,34.7c5.1-6.2,12-12.5,20-11.8
						c7.9,0.6,14.5,7.8,22.3,7.1c1.3-0.1,2.7-0.5,3.6-1.5c0.9-1,1-2.7,0-3.5c-0.6-0.5-1.6-0.6-2.4-0.7c-2-0.2-4.1-0.8-5.3-2.4
						s-0.9-4.3,0.9-5c1.9-0.7,3.7,0.9,5.6,1.5c5.9,1.9,11.7-5.9,17.6-4c1.1,1.8-0.5,3.9-2,5.4s-2.9,3.9-1.5,5.5
						c1.3,1.4,3.8,0.4,4.8-1.1c1.1-1.6,1.4-3.6,2.5-5.1c1.1-1.6,3.5-2.6,4.8-1.2c1.1,1.2,0.6,3.1,1.4,4.5c0.8,1.4,2.8,1.8,4.4,1.3
						s2.9-1.6,4.3-2.5c5.1-3.6,12.3-5.4,17.3-1.8c2.5,1.8,4.5,4.9,7.5,5.2c0.9,0.1,1.9-0.1,2.7,0.3c1.8,0.8,2,3.2,1.8,5.2
						c-0.3,2.2-1.4,4.8-3.5,4.8c-1.3,0.1-2.5-0.9-3.4-1.8c-3.5-3.4-7.8-7.4-12.6-6.2c-4.4,1.1-6.7,6.3-11,7.8
						c-4.9,1.7-10.3-2.2-15.4-1.4c-3.4,0.5-6.1,2.9-8.5,5.4c-2.1,2.1-4,5.7-1.8,7.6c2.3,1.9,7-0.1,8.1,2.7c0.4,1.2-0.3,2.6-0.3,3.9
						c0.1,2.1,2.5,3.6,4.6,3.2c2.1-0.3,3.8-2,4.8-3.8c0.9-1.5,1.7-3.3,3.4-3.6c2.4-0.4,4.1,2.8,6.6,3c2.7,0.2,4.2-3,6.3-4.7
						c2.2-1.8,5.5-1.9,8.1-0.6s4.4,3.7,5.4,6.4c0.8,1.9,1,4.5-0.6,5.8c-0.8,0.7-1.9,0.8-2.9,0.9c-5.6,0.4-11.9-1.2-16.4,2.1
						c-3.3,2.4-4.5,6.7-6.9,10c-4,5.7-10.9,8.4-17,11.8s-12.1,9-11.8,16c0.1,1.7,0.4,3.6-0.8,4.7c-1.4,1.2-3.6,0.4-4.8-1
						s-1.7-3.3-2.7-4.8c-2.4-3.3-7.3-4-11.1-2.5s-6.6,4.8-8.7,8.3c-1.1,1.9-2.1,4-2.1,6.3c0,2.2,1.2,4.6,3.3,5.4c4.7,1.8,9-5,14-4.3
						c0.5,0.1,1,0.2,1.4,0.6c1.8,2.1-3.7,5.6-1.5,7.3c0.5,0.4,1.3,0.3,1.9,0.5c1.6,0.4,2.7,2.1,3,3.7c0.3,1.7,0.1,3.4,0.2,5
						c0.3,3.3,2.5,6.7,5.8,7c5.3,0.5,7.9-6.7,12.8-8.8c2.9-1.2,6.6-0.3,8.6,2.1c1.1,1.3,1.8,3.1,3.3,3.8c2.4,1.2,5.4-0.6,8,0.2
						c2.5,0.8,3.5,3.8,5.5,5.5c3,2.5,7.8,2,10.8,4.5c1.4,1.1,2.2,2.8,3.2,4.2c2.3,3.2,6,5.7,9.9,6.5c3.3,0.6,8.1-1.2,10.6,1.7
						c1.3,1.5,1.4,4,3.1,5.2c0.9,0.6,2.2,0.6,3.2,1.1c2.2,1.1,2.6,4.3,1.7,6.7c-0.9,2.3-2.7,4.2-3.9,6.5c-1.2,2.2-1.7,4.8-1.5,7.3
						c0.2,3.3,1.6,6.9-0.4,9.5c-3.2,4.3-11.4,1.1-14.5,5.4c-1.6,2.2-0.9,5.2-1,7.9c-0.2,4.6-2.9,8.7-6.3,11.8
						c-3.4,3.1-7.4,5.3-11.3,7.8c-2.4,1.5-5.1,3.7-4.7,6.5c0.3,2.1,2.1,3.6,3,5.5c1.1,2.3,0.7,5,0.8,7.6s1.2,5.5,3.6,6.2
						c1.4,0.4,3.6,0.5,3.5,1.9c-0.7,1.1-1.7,2-2.9,2.6"/>
				</g>
			</g>
			<g>
				<defs>
					
						<ellipse id="SVGID_5_" transform="matrix(0.7071 -0.7071 0.7071 0.7071 -36.4887 166.906)" cx="183.2" cy="127.5" rx="126.5" ry="126.5"/>
				</defs>
				<clipPath id="SVGID_6_">
					<use xlink:href="#SVGID_5_"  style="overflow:visible;"/>
				</clipPath>
				<g class="st3">
					<path class="st1" d="M274,27.1c-0.9,4.1-4.1,7.6-8,8.9c-1.3,0.4-2.8,0.7-3.9,1.6c-1.1,0.9-1.5,2.8-0.4,3.7
						c1.1,0.9,3.2,0.2,4,1.5c0.5,0.8,0.1,1.8,0.4,2.6c1.1,2.4,5.4-0.7,7.3,1.2c1.3,1.2,0.1,3.5-1.6,4.1c-1.6,0.6-3.5,0.4-5.2,0.8
						c-2.4,0.5-4.3,2.3-6.1,4c-3.4,3.2-6.9,6.4-10.3,9.6c-1.2,1.1-2.4,2.2-3.9,2.8c-2.3,0.9-4.9,0.3-7.4,0.2
						c-2.5-0.1-5.4,0.4-6.6,2.6c-1.4,2.6,0.4,5.7,2.2,8c1.1,1.5,2.5,3.1,4.3,2.9c1.9-0.2,2.9-2.1,3.9-3.7c2-3.2,5-5.6,7.9-7.9
						c1.5-1.2,3.2-2.5,5.1-2.6c2.1-0.1,4.2,1.2,6.3,1.1c1.9-0.1,3.8-1.3,5.6-0.7c0.7,0.2,1.2,0.6,1.8,1.1c1.5,1.1,2.9,2.2,4.4,3.4
						c2.2,1.7,4.6,4,3.8,6.6c-0.4,1.3-1.6,2.7-0.8,3.8c0.8,1.2,2.8,0.3,3.4-1c0.6-1.3,0.6-2.8,1.3-4.1c1,1.1,2.1,2.2,3.1,3.3
						c-0.8-4.6-2.9-9-5.9-12.6c1.3-1,3.3-0.4,4.4,0.8c1.1,1.2,1.7,2.8,2.4,4.2c1.2,2.5,3.1,4.6,5.3,6.2c0.5,0.3,1,0.6,1.5,0.6
						c1.4-0.1,1.8-1.9,1.9-3.3c0.1-1.4,0.9-3.2,2.2-2.9c0.9,2.9,2.6,5.7,5.2,7.3c2.6,1.6,6.1,1.9,8.7,0.4c4.7-2.7,4.9-9.4,3.9-14.8
						c-1.7-8.5-5-16.9-11.1-23.1s-17.5-18.5-26-16.5"/>
				</g>
			</g>
			<g>
				<defs>
					
						<ellipse id="SVGID_7_" transform="matrix(0.7071 -0.7071 0.7071 0.7071 -36.4887 166.906)" cx="183.2" cy="127.5" rx="126.5" ry="126.5"/>
				</defs>
				<clipPath id="SVGID_8_">
					<use xlink:href="#SVGID_7_"  style="overflow:visible;"/>
				</clipPath>
				<g class="st4">
					<path class="st1" d="M317.3,97.2c-4.7-4.9-13.6-0.3-19.4-3.8c-1.6-1-2.9-2.5-4.5-3.5s-4-1.3-5.2,0.2c-0.3,0.4-0.6,0.9-0.9,1.4
						c-2.2,3.3-7.2,2.6-11,1.4c-2.6-0.8-5.8-2.2-5.9-5c0-1,0.3-2,0.2-3c-0.4-2.4-3.6-3.2-5.8-2.4c-2.3,0.8-4.1,2.6-6.3,3.4
						c-3.7,1.5-7.8,0.4-11.8,0.3s-8.7,1.6-9.4,5.5c-0.2,1.1,0,2.2-0.5,3.2c-0.5,1.1-1.6,1.7-2.6,2.3c-5.1,3.1-9.4,7.4-12.4,12.5
						c1,1.5,4.2,0.1,4.8,1.9c0.3,1-0.8,1.8-1.6,2.5c-3.7,3.2-2.9,9-1.1,13.6c1.5,4,3.7,7.9,6.9,10.7c3.3,2.8,7.8,4.3,12,3.1
						c2.5-0.7,4.6-2.3,6.9-3.5c2.3-1.2,5.1-1.9,7.5-0.8c1.6,0.8,2.8,2.4,4.4,3.1c3.2,1.4,8.3-0.1,9.6,3.1c0.9,2.3-1.1,4.7-1.2,7.1
						c-0.1,2.3,1.6,4.3,3.2,6c2.5,2.9,4.8,6,6,9.6c1.2,3.6,1.3,7.7-0.6,11.1c-1.6,2.9-4.6,5.9-3.1,8.8c0.5,1.1,1.6,1.8,2.3,2.8
						c2.3,3.2,0.4,7.8,2,11.4c0.9,2,2.8,3.4,3.6,5.4c0.7,1.9,0.4,4,0.5,6s0.8,4.3,2.7,5.1c1.5,0.6,3.2,0.1,4.6-0.7
						c4.8-2.5,8.4-7,10.8-11.9s3.9-10.2,5.6-15.3c7.5-22.9,19.9-44.2,26.2-67.5c1.5-5.5,2.6-11.4,0.6-16.7c-2-5.3-8.4-9.2-13.5-6.8"
						/>
				</g>
			</g>
			<g>
				<defs>
					
						<ellipse id="SVGID_9_" transform="matrix(0.7071 -0.7071 0.7071 0.7071 -36.4887 166.906)" cx="183.2" cy="127.5" rx="126.5" ry="126.5"/>
				</defs>
				<clipPath id="SVGID_10_">
					<use xlink:href="#SVGID_9_"  style="overflow:visible;"/>
				</clipPath>
				<g class="st5">
					<path class="st1" d="M255.2,54.2c-0.4,1.1-0.9,2.3-1.8,3c-1,0.7-2.6,0.7-3.2-0.4c-0.2-0.4-0.2-0.8-0.3-1.2
						c-0.4-4.6-0.8-9.2-1.2-13.7c0-0.3-0.1-0.7,0.1-1c0.3-0.8,1.5-1,2.2-0.6c0.8,0.4,1.3,1.2,1.7,2c2.4,4.1,4.7,9.4,2.1,13.4"/>
				</g>
			</g>
			<g>
				<defs>
					
						<ellipse id="SVGID_11_" transform="matrix(0.7071 -0.7071 0.7071 0.7071 -36.4887 166.906)" cx="183.2" cy="127.5" rx="126.5" ry="126.5"/>
				</defs>
				<clipPath id="SVGID_12_">
					<use xlink:href="#SVGID_11_"  style="overflow:visible;"/>
				</clipPath>
				<g class="st6">
					<path class="st1" d="M245.2,50.3c-2.4-0.2-4.1,3.3-2.5,5.1c1.6,1.8,5.2,0.5,5.3-1.9s-3.3-4.1-5.1-2.5"/>
				</g>
			</g>
			<g>
				<defs>
					
						<ellipse id="SVGID_13_" transform="matrix(0.7071 -0.7071 0.7071 0.7071 -36.4887 166.906)" cx="183.2" cy="127.5" rx="126.5" ry="126.5"/>
				</defs>
				<clipPath id="SVGID_14_">
					<use xlink:href="#SVGID_13_"  style="overflow:visible;"/>
				</clipPath>
				<g class="st7">
					<path class="st1" d="M175.1,254.7c-5.6,0.5-11.2-2.4-14.9-6.7s-5.7-9.8-6.6-15.4c-0.5-2.7-0.7-5.6-1.9-8.1
						c-0.9-1.9-2.4-3.5-3.1-5.6c-1.1-3.5,0.5-7.4,0-11c-0.5-3.7-3.1-6.9-3.4-10.7c-0.3-3.4,1.4-6.9,0.4-10.1
						c-1.2-4.1-5.9-5.8-9.6-7.9c-5.3-2.9-9.7-7.3-12.6-12.6c-1.1-2-1.9-4.2-1.6-6.4c0.5-3.8,4.1-6.3,7-8.9s5.4-6.9,3.2-10.1
						c-1.8-2.6-5.6-2.7-8.4-4.2c-4.5-2.4-6.1-8.3-10.2-11.4c-1.7-1.3-3.8-1.9-5.9-2.6c-1.2-0.4-2.4-0.8-3.6-1.2
						c-3.5-1.1-7-2.3-10.7-2.8c-2.3-0.4-4.8-0.5-6.9-1.4c-2.2-0.9-4.1-2.9-4.2-5.2c0-1.9,1.2-3.6,1.5-5.5c0.8-3.8-1.9-7.6-5.1-9.9
						c-3.2-2.3-7-3.7-10-6.2c-4.5-3.6-7.1-9.4-6.8-15.2h0.2C67.1,60,75.2,47.4,85.6,34.7c5.1-6.2,12-12.5,20-11.8
						c7.9,0.6,14.5,7.8,22.3,7.1c1.3-0.1,2.7-0.5,3.6-1.5c0.9-1,1-2.7,0-3.5c-0.6-0.5-1.6-0.6-2.4-0.7c-2-0.2-4.1-0.8-5.3-2.4
						s-0.9-4.3,0.9-5c1.9-0.7,3.7,0.9,5.6,1.5c5.9,1.9,11.7-5.9,17.6-4c1.1,1.8-0.5,3.9-2,5.4s-2.9,3.9-1.5,5.5
						c1.3,1.4,3.8,0.4,4.8-1.1c1.1-1.6,1.4-3.6,2.5-5.1c1.1-1.6,3.5-2.6,4.8-1.2c1.1,1.2,0.6,3.1,1.4,4.5c0.8,1.4,2.8,1.8,4.4,1.3
						s2.9-1.6,4.3-2.5c5.1-3.6,12.3-5.4,17.3-1.8c2.5,1.8,4.5,4.9,7.5,5.2c0.9,0.1,1.9-0.1,2.7,0.3c1.8,0.8,2,3.2,1.8,5.2
						c-0.3,2.2-1.4,4.8-3.5,4.8c-1.3,0.1-2.5-0.9-3.4-1.8c-3.5-3.4-7.8-7.4-12.6-6.2c-4.4,1.1-6.7,6.3-11,7.8
						c-4.9,1.7-10.3-2.2-15.4-1.4c-3.4,0.5-6.1,2.9-8.5,5.4c-2.1,2.1-4,5.7-1.8,7.6c2.3,1.9,7-0.1,8.1,2.7c0.4,1.2-0.3,2.6-0.3,3.9
						c0.1,2.1,2.5,3.6,4.6,3.2c2.1-0.3,3.8-2,4.8-3.8c0.9-1.5,1.7-3.3,3.4-3.6c2.4-0.4,4.1,2.8,6.6,3c2.7,0.2,4.2-3,6.3-4.7
						c2.2-1.8,5.5-1.9,8.1-0.6s4.4,3.7,5.4,6.4c0.8,1.9,1,4.5-0.6,5.8c-0.8,0.7-1.9,0.8-2.9,0.9c-5.6,0.4-11.9-1.2-16.4,2.1
						c-3.3,2.4-4.5,6.7-6.9,10c-4,5.7-10.9,8.4-17,11.8s-12.1,9-11.8,16c0.1,1.7,0.4,3.6-0.8,4.7c-1.4,1.2-3.6,0.4-4.8-1
						s-1.7-3.3-2.7-4.8c-2.4-3.3-7.3-4-11.1-2.5s-6.6,4.8-8.7,8.3c-1.1,1.9-2.1,4-2.1,6.3c0,2.2,1.2,4.6,3.3,5.4c4.7,1.8,9-5,14-4.3
						c0.5,0.1,1,0.2,1.4,0.6c1.8,2.1-3.7,5.6-1.5,7.3c0.5,0.4,1.3,0.3,1.9,0.5c1.6,0.4,2.7,2.1,3,3.7c0.3,1.7,0.1,3.4,0.2,5
						c0.3,3.3,2.5,6.7,5.8,7c5.3,0.5,7.9-6.7,12.8-8.8c2.9-1.2,6.6-0.3,8.6,2.1c1.1,1.3,1.8,3.1,3.3,3.8c2.4,1.2,5.4-0.6,8,0.2
						c2.5,0.8,3.5,3.8,5.5,5.5c3,2.5,7.8,2,10.8,4.5c1.4,1.1,2.2,2.8,3.2,4.2c2.3,3.2,6,5.7,9.9,6.5c3.3,0.6,8.1-1.2,10.6,1.7
						c1.3,1.5,1.4,4,3.1,5.2c0.9,0.6,2.2,0.6,3.2,1.1c2.2,1.1,2.6,4.3,1.7,6.7c-0.9,2.3-2.7,4.2-3.9,6.5c-1.2,2.2-1.7,4.8-1.5,7.3
						c0.2,3.3,1.6,6.9-0.4,9.5c-3.2,4.3-11.4,1.1-14.5,5.4c-1.6,2.2-0.9,5.2-1,7.9c-0.2,4.6-2.9,8.7-6.3,11.8
						c-3.4,3.1-7.4,5.3-11.3,7.8c-2.4,1.5-5.1,3.7-4.7,6.5c0.3,2.1,2.1,3.6,3,5.5c1.1,2.3,0.7,5,0.8,7.6s1.2,5.5,3.6,6.2
						c1.4,0.4,3.6,0.5,3.5,1.9c-0.7,1.1-1.7,2-2.9,2.6"/>
				</g>
			</g>
			<g>
				<defs>
					
						<ellipse id="SVGID_15_" transform="matrix(0.7071 -0.7071 0.7071 0.7071 -36.4887 166.906)" cx="183.2" cy="127.5" rx="126.5" ry="126.5"/>
				</defs>
				<clipPath id="SVGID_16_">
					<use xlink:href="#SVGID_15_"  style="overflow:visible;"/>
				</clipPath>
				<g class="st8">
					<path class="st1" d="M275,27.1c-0.9,4.1-4.1,7.6-8,8.9c-1.3,0.4-2.8,0.7-3.9,1.6c-1.1,0.9-1.5,2.8-0.4,3.7
						c1.1,0.9,3.2,0.2,4,1.5c0.5,0.8,0.1,1.8,0.4,2.6c1.1,2.4,5.4-0.7,7.3,1.2c1.3,1.2,0.1,3.5-1.6,4.1c-1.6,0.6-3.5,0.4-5.2,0.8
						c-2.4,0.5-4.3,2.3-6.1,4c-3.4,3.2-6.9,6.4-10.3,9.6c-1.2,1.1-2.4,2.2-3.9,2.8c-2.3,0.9-4.9,0.3-7.4,0.2
						c-2.5-0.1-5.4,0.4-6.6,2.6c-1.4,2.6,0.4,5.7,2.2,8c1.1,1.5,2.5,3.1,4.3,2.9c1.9-0.2,2.9-2.1,3.9-3.7c2-3.2,5-5.6,7.9-7.9
						c1.5-1.2,3.2-2.5,5.1-2.6c2.1-0.1,4.2,1.2,6.3,1.1c1.9-0.1,3.8-1.3,5.6-0.7c0.7,0.2,1.2,0.6,1.8,1.1c1.5,1.1,2.9,2.2,4.4,3.4
						c2.2,1.7,4.6,4,3.8,6.6c-0.4,1.3-1.6,2.7-0.8,3.8c0.8,1.2,2.8,0.3,3.4-1c0.6-1.3,0.6-2.8,1.3-4.1c1,1.1,2.1,2.2,3.1,3.3
						c-0.8-4.6-2.9-9-5.9-12.6c1.3-1,3.3-0.4,4.4,0.8c1.1,1.2,1.7,2.8,2.4,4.2c1.2,2.5,3.1,4.6,5.3,6.2c0.5,0.3,1,0.6,1.5,0.6
						c1.4-0.1,1.8-1.9,1.9-3.3c0.1-1.4,0.9-3.2,2.2-2.9c0.9,2.9,2.6,5.7,5.2,7.3c2.6,1.6,6.1,1.9,8.7,0.4c4.7-2.7,4.9-9.4,3.9-14.8
						c-1.7-8.5-5-16.9-11.1-23.1s-17.5-18.5-26-16.5"/>
				</g>
			</g>
			<g>
				<defs>
					
						<ellipse id="SVGID_17_" transform="matrix(0.7071 -0.7071 0.7071 0.7071 -36.4887 166.906)" cx="183.2" cy="127.5" rx="126.5" ry="126.5"/>
				</defs>
				<clipPath id="SVGID_18_">
					<use xlink:href="#SVGID_17_"  style="overflow:visible;"/>
				</clipPath>
				<g class="st9">
					<path class="st1" d="M318.3,97.2c-4.7-4.9-13.6-0.3-19.4-3.8c-1.6-1-2.9-2.5-4.5-3.5s-4-1.3-5.2,0.2c-0.3,0.4-0.6,0.9-0.9,1.4
						c-2.2,3.3-7.2,2.6-11,1.4c-2.6-0.8-5.8-2.2-5.9-5c0-1,0.3-2,0.2-3c-0.4-2.4-3.6-3.2-5.8-2.4c-2.3,0.8-4.1,2.6-6.3,3.4
						c-3.7,1.5-7.8,0.4-11.8,0.3s-8.7,1.6-9.4,5.5c-0.2,1.1,0,2.2-0.5,3.2c-0.5,1.1-1.6,1.7-2.6,2.3c-5.1,3.1-9.4,7.4-12.4,12.5
						c1,1.5,4.2,0.1,4.8,1.9c0.3,1-0.8,1.8-1.6,2.5c-3.7,3.2-2.9,9-1.1,13.6c1.5,4,3.7,7.9,6.9,10.7c3.3,2.8,7.8,4.3,12,3.1
						c2.5-0.7,4.6-2.3,6.9-3.5c2.3-1.2,5.1-1.9,7.5-0.8c1.6,0.8,2.8,2.4,4.4,3.1c3.2,1.4,8.3-0.1,9.6,3.1c0.9,2.3-1.1,4.7-1.2,7.1
						c-0.1,2.3,1.6,4.3,3.2,6c2.5,2.9,4.8,6,6,9.6c1.2,3.6,1.3,7.7-0.6,11.1c-1.6,2.9-4.6,5.9-3.1,8.8c0.5,1.1,1.6,1.8,2.3,2.8
						c2.3,3.2,0.4,7.8,2,11.4c0.9,2,2.8,3.4,3.6,5.4c0.7,1.9,0.4,4,0.5,6s0.8,4.3,2.7,5.1c1.5,0.6,3.2,0.1,4.6-0.7
						c4.8-2.5,8.4-7,10.8-11.9s3.9-10.2,5.6-15.3c7.5-22.9,19.9-44.2,26.2-67.5c1.5-5.5,2.6-11.4,0.6-16.7c-2-5.3-8.4-9.2-13.5-6.8"
						/>
				</g>
			</g>
			<g>
				<defs>
					
						<ellipse id="SVGID_19_" transform="matrix(0.7071 -0.7071 0.7071 0.7071 -36.4887 166.906)" cx="183.2" cy="127.5" rx="126.5" ry="126.5"/>
				</defs>
				<clipPath id="SVGID_20_">
					<use xlink:href="#SVGID_19_"  style="overflow:visible;"/>
				</clipPath>
				<g class="st10">
					<path class="st1" d="M256.2,54.2c-0.4,1.1-0.9,2.3-1.8,3c-1,0.7-2.6,0.7-3.2-0.4c-0.2-0.4-0.2-0.8-0.3-1.2
						c-0.4-4.6-0.8-9.2-1.2-13.7c0-0.3-0.1-0.7,0.1-1c0.3-0.8,1.5-1,2.2-0.6c0.8,0.4,1.3,1.2,1.7,2c2.4,4.1,4.7,9.4,2.1,13.4"/>
				</g>
			</g>
			<g>
				<defs>
					
						<ellipse id="SVGID_21_" transform="matrix(0.7071 -0.7071 0.7071 0.7071 -36.4887 166.906)" cx="183.2" cy="127.5" rx="126.5" ry="126.5"/>
				</defs>
				<clipPath id="SVGID_22_">
					<use xlink:href="#SVGID_21_"  style="overflow:visible;"/>
				</clipPath>
				<g class="st11">
					<path class="st1" d="M246.2,50.3c-2.4-0.2-4.1,3.3-2.5,5.1c1.6,1.8,5.2,0.5,5.3-1.9s-3.3-4.1-5.1-2.5"/>
				</g>
			</g>
		</g>
	</g>
	<g class="st12">
		
			<ellipse transform="matrix(0.7071 -0.7071 0.7071 0.7071 -36.4887 166.906)" class="st13" cx="183.2" cy="127.5" rx="126.5" ry="126.5"/>
		<g>
			<g>
				<defs>
					
						<ellipse id="SVGID_23_" transform="matrix(0.7071 -0.7071 0.7071 0.7071 -36.4887 166.906)" cx="183.2" cy="127.5" rx="126.5" ry="126.5"/>
				</defs>
				<clipPath id="SVGID_24_">
					<use xlink:href="#SVGID_23_"  style="overflow:visible;"/>
				</clipPath>
				<g class="st14">
					<g>
						<path class="st15" d="M174.1,253.6c-11.1,0.3-17.8-9.1-20-19c-0.8-3.6-0.9-7.3-2.5-10.6c-1.1-2.2-2.4-3.7-2.9-6.1
							c-0.7-2.9,0.1-5.4,0.1-8.4c-0.1-3.5-1.9-6.2-2.9-9.5c-1.4-4.5,1-8.9-0.3-13.3c-1.8-5.9-9.3-7.6-13.8-10.9
							c-3.5-2.6-6.5-5.9-8.5-9.8c-4-7.7,2-10.3,6.2-15c3.1-3.5,5-9,0.5-12.2c-3.1-2.2-6.9-2.1-9.7-5c-2.4-2.5-3.7-5.8-6.3-8.2
							c-2.1-1.9-4.7-2.8-7.3-3.7c-4.7-1.6-9.4-3.2-14.3-4c-1.2-0.2-2.4-0.2-3.5-0.5c-3.4-0.7-5.2-1.2-5.8-4.9
							c-0.5-2.8,0.4-3.9,0.6-6.4c0.2-3-1.2-5.8-3.2-8c-3.1-3.3-7.5-4.8-11.1-7.3c-5.1-3.5-7.7-9.1-7.6-15.2
							c-0.4,0.4-0.8,0.8-1.1,1.1c0.1,0,0.1,0,0.2,0c0.5,0,0.9-0.4,1.1-0.8c5.3-15.3,13.8-29.3,24.4-41.6c5.7-6.6,13.1-12.4,22.3-9.4
							c6,2,11.6,6.9,18.3,6.2c3-0.3,7.5-3.4,4.5-6.7c-0.5-0.5-1-0.7-1.7-1c-0.4-0.2-1,0-1.4-0.2c-0.5-0.1-1-0.2-1.5-0.2
							c0.1-1.4,0.3-2.8,0.4-4.2c-0.1,0,5,1,5.8,0.9c2.6-0.5,4.9-2,7.3-3.1c0.7-0.3,1.9-1,2.7-1c2.2,0.1,2.4,1.1,1.8,2.6
							c-0.5,1.2-1.9,2.1-2.5,3.3c-1.3,2.7-0.2,6.1,3.3,5.7c2.3-0.3,2.9-2,4.2-3.6c1.2-1.4,3.3-5.8,5.5-2.6c0.6,0.8,0.4,1.8,1.2,2.7
							c4,4.2,9.7-1.9,13.3-3.5c4.4-1.9,9.4-2.2,13.3,0.9c2.3,1.8,3.8,3.2,6.4,4.5c1.9,0.9,4.2,2.1,4.2,4.3c0.1,2.6-3.7,3-5.5,1.9
							c-0.6-0.3-1.1-1.1-1.7-1.6c-2.2-1.9-4.5-3.8-7.4-4.4c-5.6-1.3-8.5,3-12.3,6.1c-6.3,5-14.1-2-21,1.2c-3.7,1.7-9,6.1-9.2,10.5
							c-0.2,5.5,6,3.2,8,6.1c1.2,1.7,0.3,3.3,1.4,5c1.1,1.8,3.2,2.6,5.3,2.4c1.9-0.3,3.6-1.6,4.8-3.1c1.4-1.8,1-2.3,3.5-3
							c2.9-0.8,2.4,0.4,4.9,1.3c1.4,0.5,2.8,0.4,4.1-0.3c1-0.5,1.6-1.5,2.4-2.2c2.9-2.7,5.5-4.2,9.3-2.1c1.6,0.9,5.2,4.1,4.8,6.4
							c-0.2,1.1-4.3,3.9-5.2,4.1c-0.7,0.1-1.6,0-2.4,0c-3.4-0.1-6.9-0.3-10.1,1c-5.6,2.3-6.8,8.3-10.4,12.6c-5,6-12.8,8.1-18.9,12.5
							c-4.4,3.2-8.6,7.6-9.1,13.3c0,0.5,0.2,1.7,0,2.3c-0.2,0.6-3.2,1.9-4.3,1.4c-0.7-0.4-1.6-3.1-2.1-3.7c-1.4-1.8-3.4-3-5.6-3.5
							c-5.4-1.2-10.3,1.8-13.6,5.9c-2.9,3.7-6.3,9.3-3.6,14c2.5,4.2,6.8,3.1,10.3,1.1c1.1-0.6,2.1-1.3,3.2-1.9
							c1.2-0.5,3.6-1.8,3.9,1.1c0,0.3-0.7,0.9-0.8,1.2c-0.3,1.3-1.5,2.2-0.8,3.7c0.2,0.4,0.6,0.6,0.8,1c0.1,0.1,1.6,0.9,1.2,0.5
							c1.3,1.3,2.9,3.6,3.3,5.3c0.6,2.9,0,5.2,2,7.7c2.4,3.2,6.3,3.7,9.6,1.6c1.9-1.2,3.3-3.1,4.9-4.6c1.6-1.6,3.6-3.3,6-3.4
							c3.3-0.1,4.7,2.4,6.7,4.4c1.3,1.4,2.4,2.3,4.5,2.5c2.4,0.1,5.2-0.5,7.4,0.9c1.4,0.9,2.2,3.1,3.4,4.1c1.7,1.5,3.8,1.9,5.9,2.5
							c2.6,0.8,4.6,1.5,6.5,3.7c0.9,1.1,1.6,2.5,2.6,3.6c1.8,2,4,3.6,6.5,4.7c3,1.2,5.2,0.7,8.3,1c3,0.3,4.8,1.6,6.2,4.2
							c0.4,0.7,0.7,1.4,1.3,1.9c0.6,0.6,1.3,0.7,1.9,1.2c1.6,1.1,0.3-0.9,2.3,2c1.7,2.4,0.9,4-0.5,6.3c-1.5,2.6-3.2,4.7-3.8,7.6
							c-0.7,3.3,0.9,6.6,0.4,9.7c-1.6,8.4-11,2.9-15.2,8.4c-1.2,1.5-1.4,3.4-1.4,5.3c-0.1,5.3-1,9.4-4.8,13.4
							c-3.1,3.2-7,5.4-10.7,7.8c-2.2,1.3-4.9,2.8-6,5.2c-0.8,1.7-0.8,3.2-0.2,4.9c0.5,1.2,1.4,2.1,2.1,3.2c1.5,2.6,1,5.3,1.2,8.1
							c0.1,2,0.6,4.2,1.9,5.7c1.7,1.9,6.6,1.8,2.8,4.1c-1.2,0.7-0.1,2.7,1.1,1.9c3.7-2.2,4.5-4.1,0.9-6.1c-6-3.4-3.8-5.9-4.7-11.2
							c-0.2-1.3-0.7-2.4-1.3-3.6c-0.4-0.6-1.3-1.5-1.5-2.1c-0.6-2.8,1.3-5.8,3.4-7.3c5.9-4,12.4-7.1,16-13.5c1.3-2.4,2.1-5,2.1-7.7
							c0.1-2.6-0.1-5.7,2.1-7.7c1.4-1.3,4.4-1,6.3-1.2c4.2-0.5,7.9-2.1,8.2-6.8c0.3-4.1-1.3-7.7,0.2-11.8c1.2-3.2,4.2-5.8,4.8-9.2
							c1.2-6.2-4.7-6.8-7.5-11c-3.6-5.5-8.1-2.5-13.6-4.1c-7.2-2.1-8.7-10-15.8-12.2c-1.8-0.5-3.7-0.7-5.3-1.7
							c-1.7-1-2.6-2.8-3.8-4.2c-1.8-1.9-3.4-2.5-6-2.4c-3.3,0.1-4.2,0.2-7.3-2.8c-0.6-0.6-1-1.3-1.7-1.9c-2-1.5-4.6-2.2-7.1-1.7
							c-5.3,1-10,11.6-15.7,8.6c-4.4-2.4-2-8.1-3.6-11.8c-1-2.4-2.4-2-3.9-3.4c-2-1.9,4.4-6.5-1-8.2c-1.5-0.5-3.1,0-4.5,0.5
							c-1.3,0.5-2.5,1.3-3.8,2c-0.5,0.3-1,0.6-1.6,0.9c-3.7,1.9-7.4-1.8-6.3-5.7c1.2-4.6,4.8-9.6,9.4-11.3c2.9-1.1,6.5-1.1,9,1.2
							c1.6,1.5,2,3.9,3.5,5.5c2.1,2.4,5.9,3.2,7.4-0.1c1.3-2.8,0-6.3,1.4-9.3c2-4.4,6-7.5,10.1-9.8c5.7-3.3,12.1-5.8,16.4-11
							c2-2.4,3.1-5.3,4.8-7.8c3.3-5,8.5-5.1,13.9-5c4.3,0.1,10.2,0.3,9.9-5.5c-0.2-4.9-4.6-10-9.5-10.6c-2.2-0.3-4.4,0.2-6.2,1.5
							c-0.7,0.5-1.3,1.3-1.9,1.9c-0.4,0.4-1.1,1.5-1.6,1.8c-1.8,1-3.4-0.1-4.9-0.7s-2.3-1.7-4.1-1.4c-3.2,0.6-2.9,5-5.4,5.9
							c-0.3,0.1-5.6-3.1-5.7-3.1c-0.2-0.3,0.1-1.1-0.1-1.4c-0.3-0.5-0.4-1.1-0.8-1.6c-1.2-1.3-2.9-0.9-4.4-1.3
							c-0.6-0.1-1.2-0.1-1.8-0.2c-0.3-1.5-0.7-3.1-1-4.6c0.2-0.9,1.9-2.3,2.5-2.9c1.6-1.5,3.4-3,5.5-3.7c4.6-1.4,9,1.5,13.5,1.5
							c6.7,0,8.6-6.9,14.4-8.3c5.5-1.3,8.7,4.1,12.5,6.8c1.4,1,3.1,1.7,4.8,0.9c3-1.4,4.1-7,2.7-9.8c-0.9-1.8-2-1.9-3.8-2.4
							c-3.2-0.9-4.2-1.6-6.6-3.6c-1.3-1.2-2.6-2.1-4.3-2.8c-4.9-1.9-10.5-0.3-14.8,2.3c-2.6,1.6-3.1,2.9-6.3,2.1
							c-3.6-0.9-1.7-1-2.9-3.2c-0.8-1.5-1.9-2.3-3.7-2.2c-1.8,0.2-3.1,1.5-4,3c-0.1,0.1-0.6,1.5-0.7,1.6c-0.2,0.2-2.8,1.1-3,0
							c-0.1-0.3,2.2-2.8,2.4-3.4c1.3-4.1-2.4-4.7-5.6-3.9c-2.7,0.7-5.1,2.4-7.7,3.4c-3.1,1.1-4.8,0.3-7.6-0.6
							c-1.2-0.4-2.1-0.8-3.3-0.4c-3.4,1-3.3,5.3-1.2,7.5c0.7,0.7,1.4,1.1,2.3,1.5c0.5,0.2,2.7,0.5,2.9,0.7c0,0.6,0,1.1,0.1,1.7
							c0.6,1.5,0.2,2.1-1.2,1.8c-3.4,1.7-10.2-2.8-13.1-4.2c-5.4-2.6-10.8-3.9-16.6-1.6c-6.4,2.6-11.1,8.2-15.3,13.5
							c-4.6,5.8-9,11.9-12.7,18.4c-0.9,1.5-9.4,19.5-8.3,19.6c-0.6-0.1-1.1,0.6-1.1,1.1c-0.1,6.9,3,13.1,8.7,17.1
							c3.8,2.6,8.7,4.1,11.5,8c3.7,5.3-1.1,8.3,0.4,13.2c0.7,2.2,2.7,3.8,4.7,4.7c4.8,2.1,10.8,2.1,15.9,3.7
							c5.3,1.7,10.6,2.9,14,7.6c1.8,2.5,3.3,5.3,5.8,7.2c0.9,0.6,1.8,1.1,2.8,1.5c0.9,0.4,1.8,0.6,2.7,0.9c0.8,0.3,1.5,0.6,2.3,0.9
							c0.4,2.3,0.8,4.5,1.2,6.8c-1.1,4-7,6.1-9,9.8c-3.2,6,1.7,12.8,5.8,17.1c2.3,2.4,5,4.5,7.9,6.1c1.5,0.9,3.2,1.5,4.6,2.5
							c4.4,2.8,4.9,5.9,4.2,10.9c-0.4,3.3,0,5.8,1.2,8.9c1.2,3,2.1,5.4,2,8.7c-0.1,2.2-0.6,4.3-0.3,6.5c0.3,1.8,1,3.2,1.9,4.8
							c1.6,3,2.6,5.5,3.2,8.9c0.7,4.2,1.7,8.4,3.6,12.2c3.8,7.4,10.8,12.6,19.3,12.4C175.6,255.8,175.6,253.6,174.1,253.6
							L174.1,253.6z"/>
					</g>
				</g>
			</g>
			<g>
				<defs>
					
						<ellipse id="SVGID_25_" transform="matrix(0.7071 -0.7071 0.7071 0.7071 -36.4887 166.906)" cx="183.2" cy="127.5" rx="126.5" ry="126.5"/>
				</defs>
				<clipPath id="SVGID_26_">
					<use xlink:href="#SVGID_25_"  style="overflow:visible;"/>
				</clipPath>
				<g class="st16">
					<g>
						<path class="st15" d="M272.9,26.8c-1.4,5-4.8,7-9.3,8.7c-1.6,0.6-3,1.4-3.5,3c-0.4,1.2-0.3,2.5,0.7,3.4
							c0.6,0.5,1.4,0.5,2.1,0.8c1.7,0.9,1.2,1.8,2.2,3c0.7,1,1.3,1.3,2.5,1.5c0.4,0.1,2.4-0.4,2.6-0.3c0.6,0.6-2.4,2.9-2.7,3
							c-0.1,0-1.7,0.3-1.9,0.4c-5.8,1.9-10.6,8.5-15,12.5c-2.5,2.3-4.6,4-8.1,4.1c-1.5,0.1-2.9-0.3-4.4-0.3c-2,0-4.4,0.4-5.9,1.9
							c-3.2,3.2-1,7.7,1.3,10.7c2.5,3.2,5.7,4.4,8.6,1c2.3-2.6,4-5.4,6.6-7.7c2.4-2.1,4-3.6,7.2-3.7c2.1-0.1,3.9,0.5,6,0.5
							c2,0,3.9-1.2,6-0.4c1.6,0.6,5.1,3.6,6.1,4.7c1.3,1.6,0.9,0.5,1.4,3.5c0.4,2.2-0.2,2.4-0.1,3.9c0.1,0.7,0,1.5,0.5,2
							c3.3,4.5,6.1-3.9,6.7-5.4c-0.6,0.2-1.3,0.3-1.9,0.5c1,1.1,2.1,2.2,3.1,3.3c0.8,0.9,2.1,0,1.9-1.1c-1-4.9-3-9.2-6.2-13.1
							c-0.1,0.6-0.2,1.2-0.2,1.8c4.2-1.9,7.5,12.4,13,12c1.4-0.1,1.8-0.9,2.4-1.9c0.5-0.7,0.4-3.5,1.1-3.7c-0.1,0.1,1.7,3.1,1.6,3
							c6.2,9,17.7,4.9,18.4-5.3c0.9-12.2-6-24.4-14.2-32.7c-6.2-6.2-15-16.1-24.8-14.5c-1.4,0.2-0.8,2.4,0.6,2.2
							c6-1,11.8,3.9,16,7.6c4.4,3.8,9,8.1,12.4,12.8c4,5.7,6.6,12.7,7.6,19.6c0.4,3.1,0.6,6.5-0.9,9.4c-4.3,8.3-12.9,1.8-14.9-4
							c-0.2-0.4-0.6-0.9-1.1-0.8c-1.9,0.2-1.9,0.9-3,2.3c-0.3,0.4,0,1.3-0.4,1.6c-2.8,2.9-5.1-1.4-6.2-3.4c-2.1-3.6-3.8-8.3-8.7-6.1
							c-0.7,0.3-0.6,1.3-0.2,1.8c2.9,3.6,4.7,7.5,5.6,12.1c0.6-0.4,1.3-0.7,1.9-1.1c-1-1.1-2.1-2.2-3.1-3.3
							c-0.6-0.7-1.6-0.2-1.9,0.5c-0.4,0.9-0.7,1.8-0.9,2.7c-1.6,0.9-1.9,0.6-0.9-0.9c-0.3-1,0.2-2-0.1-3.1c-0.8-2.6-3.5-4.4-5.6-5.9
							c-2.1-1.6-3.9-3.5-6.6-3.6c-2.8-0.1-3.8,0.7-7.1,0.3c-1.4-0.2-2.2-0.7-3.7-0.6c-2.7,0.3-4.9,2.3-6.9,3.9
							c-1.7,1.4-3.3,2.8-4.7,4.4c-0.9,1-1.7,2.9-2.7,3.7c-5.8,4.6-10.1-5.6-6.6-8.3c1.5-1.2,4.1-0.8,5.9-0.6
							c3.8,0.2,6.1,0.2,9.2-2.2c3.3-2.5,6.2-5.7,9.2-8.5c1.2-1.1,2.4-2.3,3.7-3.4c2.5-2.1,4.9-2.5,8-3c2.7-0.5,6.7-4,3.5-6.6
							c-2-1.7-4.1,0.5-5.9-0.4c-1.6-0.8-0.6-2.3-1.6-3.2c0.2,0.2-1.2-0.8-1.3-0.9c-1.9,0-2-1.2-0.2-3.5c0.9-0.2,1.8-0.5,2.7-0.9
							c1-0.5,2-1,2.9-1.8c2.4-1.9,3.8-4.5,4.7-7.4C275.5,26,273.3,25.4,272.9,26.8L272.9,26.8z"/>
					</g>
				</g>
			</g>
			<g>
				<defs>
					
						<ellipse id="SVGID_27_" transform="matrix(0.7071 -0.7071 0.7071 0.7071 -36.4887 166.906)" cx="183.2" cy="127.5" rx="126.5" ry="126.5"/>
				</defs>
				<clipPath id="SVGID_28_">
					<use xlink:href="#SVGID_27_"  style="overflow:visible;"/>
				</clipPath>
				<g class="st17">
					<g>
						<path class="st15" d="M318.1,96.4c-3.3-2.9-7.2-2.8-11.4-2.7c-4,0.1-7-0.3-10.2-2.9c-1.5-1.2-2.9-2.6-4.9-2.9
							c-1.2-0.2-2.2,0-3.3,0.6c-1.4,0.7-1.7,2.6-3.1,3.4c-1.7,1-4.3,0.7-6.1,0.4c-1.2-0.2-2.4-0.6-3.5-1c-3.3-1.3-2.9-3.7-3.7-6.5
							c-0.4-1.2-0.7-2-1.7-2.8c-3.7-2.8-7.6,0.7-10.8,2.2c-5.7,2.8-12-0.6-17.9,1.7c-5.5,2.1-4.3,7.2-8.4,10.7
							c-4.7,3.9-8.8,7.2-12.1,12.5c-0.2,0.4-0.2,1.1,0.2,1.4c0.7,0.6,3.1,0.9,3.3,1.2c0.8,1-2,4-2.4,5c-1.4,3.6-0.5,7.8,0.8,11.3
							c2.9,7.8,9.6,16.4,18.9,14.9c2.2-0.3,4-1.3,5.9-2.4c1.7-0.9,3.4-2.2,5.4-2.5c7.2-1.1,3.9,1.1,6.7,2.4c1.5,0.7,2.4,1.3,4.1,1.6
							c0.7,0.1,1.5,0.1,2.3,0.2c2.3-0.2,3.7,1,4.1,3.7c-0.3,1-0.7,1.9-1,2.9c-0.7,3.6,1,5.8,3.2,8.6c2.2,2.8,4.5,5.6,5.7,9.1
							c1.7,5.2,0.2,8.9-2.4,13.3c-1.9,3.1-2,5-0.3,8c1.1,2.1,2.2,4.1,2.5,6.6c0.1,1,0,2,0.1,3c0.2,2.3,1,3.8,2.2,5.6
							c2.2,3.2,2.2,5.6,2.6,9.3c0.1,1.3,0.4,2.6,1.2,3.7c2.3,3.2,6.1,2.1,9,0.3c9.5-5.7,12.4-17.4,15.6-27.2
							c4.3-13.1,10.2-25.6,15.6-38.3c5-11.8,11.4-24.9,12.3-37.9c0.6-8.7-5.7-20-16-16.1c-1.3,0.5-0.8,2.7,0.6,2.2
							c4.3-1.7,9.1,0.5,11.3,4.5c2.6,4.6,2,10.2,0.8,15.1c-1.8,7.6-4.5,15-7.3,22.2c-5.9,14.9-13.1,29.2-18.4,44.4
							c-2.8,7.9-4.6,16.6-9.7,23.5c-1,1.4-2.1,2.6-3.4,3.8c-0.8,0.7-1.8,1.7-2.7,2.1c-2.3,0.9-0.2,1.4-4.1-1
							c-3.9-2.4-2.3-2.4-2.9-6.3c-0.2-0.9-0.4-1.7-0.8-2.6c-0.7-1.4-1.8-2.4-2.6-3.7c-1.2-2-1.1-4.1-1.2-6.4
							c-0.1-2.6-0.5-4.1-1.6-6.4c-1.2-2.4-1.7-5.2-0.5-7.7c0.7-1.4,1.7-2.5,2.2-3.9c0.9-2.3,1.1-4.8,0.8-7.3
							c-0.4-3.1-1.7-5.9-3.4-8.5c-2.4-3.8-6.8-7-6-11.9c0.6-3.6,2-6.9-2.6-8.3c-3.2-1-5.8-0.4-8.8-2.4c-2-1.3-3.4-2.5-6-2.4
							c-2.3,0.1-4.4,1.2-6.4,2.2c-4.7,2.5-9,4.2-14,1.3c-6.3-3.6-13.6-16.3-8.6-23.2c1.6-2.2,4.2-4.1,0.9-6.1
							c-0.7-0.4-1.9,0.1-2.4-0.8c-0.3-0.7,3.2-4.2,3.8-4.9c2.6-2.7,5.8-4.4,8.6-6.7c1.5-1.3,1.8-2.1,2.3-4.1
							c1.7-6.2,6.4-6.1,11.8-5.7c3.3,0.3,6.5,0.5,9.6-1c1.4-0.7,2.8-2.1,4.4-2.6c7.4-2.1,4.6,2.7,5.5,5.3c1.4,4.1,8,5.5,11.7,5.7
							c2.4,0.1,4-0.4,5.9-1.6c1.7-1.1,3.1-2.9,5.7-2.4c1.3,0.3,2.7,2.3,3.9,3.1c6,4,14.3-0.6,19.8,4
							C317.6,98.9,319.2,97.3,318.1,96.4L318.1,96.4z"/>
					</g>
				</g>
			</g>
			<g>
				<defs>
					
						<ellipse id="SVGID_29_" transform="matrix(0.7071 -0.7071 0.7071 0.7071 -36.4887 166.906)" cx="183.2" cy="127.5" rx="126.5" ry="126.5"/>
				</defs>
				<clipPath id="SVGID_30_">
					<use xlink:href="#SVGID_29_"  style="overflow:visible;"/>
				</clipPath>
				<g class="st18">
					<g>
						<path class="st15" d="M254.1,53.9c-0.1,1.3-0.7,1.8-1.8,1.6c-1.2,0.6-1.6,0.2-1.3-1.1c-0.3-1-0.2-2.7-0.3-3.7
							c-0.2-2.3-0.4-4.6-0.6-6.9c-0.1-0.6-0.1-1.2-0.2-1.9c0.6,0.3,1.3,0.6,1.9,0.9c0.6,0.6,1.2,2.2,1.6,3c1.4,3,2.2,6.2,0.6,9.2
							c-0.7,1.3,1.3,2.4,1.9,1.1c2.6-4.8,0.5-10.2-2.1-14.5c-1.3-2.1-5.1-4.5-6-0.8c-0.7,2.7,0.5,6.9,0.7,9.7c0.2,1.9-0.2,5.2,1,6.9
							c2.5,3.7,6-0.7,7-3.1C256.8,53.1,254.6,52.5,254.1,53.9L254.1,53.9z"/>
					</g>
				</g>
			</g>
			<g>
				<defs>
					
						<ellipse id="SVGID_31_" transform="matrix(0.7071 -0.7071 0.7071 0.7071 -36.4887 166.906)" cx="183.2" cy="127.5" rx="126.5" ry="126.5"/>
				</defs>
				<clipPath id="SVGID_32_">
					<use xlink:href="#SVGID_31_"  style="overflow:visible;"/>
				</clipPath>
				<g class="st19">
					<g>
						<path class="st15" d="M245.2,49.2c-2.6-0.1-4.5,2.6-4.2,5c0.4,2.6,3.1,3.7,5.3,2.8c2.3-0.9,3.6-3.5,2.2-5.7
							c-1.4-2.2-4.4-2.8-6.5-1.2c-1.1,0.9,0.5,2.5,1.6,1.6c0.9-0.7,2.4-0.1,2.9,0.7c0.7,1-0.1,2.1-1.1,2.4c-1,0.4-2.3,0-2.3-1.3
							c0-1.1,0.8-2.3,2-2.3C246.7,51.5,246.7,49.3,245.2,49.2L245.2,49.2z"/>
					</g>
				</g>
			</g>
			<g>
				<defs>
					
						<ellipse id="SVGID_33_" transform="matrix(0.7071 -0.7071 0.7071 0.7071 -36.4887 166.906)" cx="183.2" cy="127.5" rx="126.5" ry="126.5"/>
				</defs>
				<clipPath id="SVGID_34_">
					<use xlink:href="#SVGID_33_"  style="overflow:visible;"/>
				</clipPath>
				<g class="st20">
					<g>
						<path class="st15" d="M175.1,254.4c-11.4,0.3-18.5-9.4-20.7-19.5c-0.8-3.5-0.9-7.2-2.4-10.4c-1.1-2.3-2.4-3.7-3-6.3
							c-0.7-3,0.1-5.5,0-8.5c-0.1-3.4-1.9-6.1-2.8-9.3c-1.3-4.5,1-8.9-0.3-13.3c-1.7-5.7-9.3-7.4-13.5-10.5c-3.5-2.6-6.7-6.1-8.7-10
							c-4.2-8.2,1.9-10.9,6.4-15.9c2.8-3.1,4.7-8.1,0.6-11c-3.1-2.2-7-2.2-9.8-5.2c-2.4-2.5-3.7-5.9-6.3-8.2c-2-1.8-4.5-2.7-7-3.5
							c-4.7-1.6-9.4-3.2-14.3-4c-1.2-0.2-2.4-0.2-3.5-0.5c-3.7-0.8-5.5-1.5-6.2-5.4c-0.5-3.1,0.2-3.9,0.5-6.6c0.3-2.8-1.1-5.4-3-7.5
							c-3-3.3-7.4-4.7-11-7.2c-2.4-1.7-4.4-3.8-5.8-6.3c-0.3-0.5-3.3-9.2-2.4-9.1c0.2,0,0.3-0.1,0.4-0.3
							C67.6,60.4,76.2,46.3,86.9,34c5.9-6.8,13.6-12.7,23-9.6c5.9,1.9,11.5,6.9,18.1,6.2c2.4-0.3,6.7-2.8,3.9-5.6
							c-0.3-0.3-0.9-0.5-1.3-0.7c-0.4-0.2-0.9,0-1.3-0.2c-0.5-0.1-1-0.2-1.5-0.2c0.3-1.8,0.7-3.7,1-5.5c0.2-0.1,4.4,0.9,5.2,0.8
							c2.5-0.5,4.8-2,7.1-3c2.4-1.1,7.5-1.9,5.4,2.7c-0.5,1.2-1.9,2-2.4,3.2c-1,2.2-0.3,4.7,2.5,4.5c2.1-0.1,2.6-1.9,3.8-3.2
							c0.1-0.1,0.5-1.1,0.3-0.8c1.5-2,5-3.3,6.5-1.6c0.5,0.5,0.4,1.7,1,2.3c3.6,3.8,9.3-2.2,12.5-3.7c4.7-2.1,10-2.3,14.2,1.1
							c2.2,1.7,3.6,3.1,6,4.3c2.1,1,4.6,2.9,4.8,5.2c0.2,3.1-4.6,3.7-6.8,2.3c-0.6-0.4-1.1-1.1-1.7-1.6c-2.1-1.8-4.3-3.6-7.1-4.2
							c-5.3-1.2-8.1,3.1-11.7,6c-6.6,5.2-14.1-2-21.2,1.3c-3.3,1.6-8.6,5.8-8.7,9.8c0,1.1,0.2,2.1,1.1,2.9c0.7,0.6,1.6,0.7,2.4,0.9
							c2.3,0.5,2.4-0.4,4.1,2.1c1.9,2.7,1.1,7.6,6.2,6.9c1.8-0.2,3.3-1.5,4.3-2.9c1.6-2,0.8-2.1,3.9-3c3.7-1,2.4,0.1,5.3,1.1
							c1.2,0.4,2.3,0.3,3.4-0.3c0.9-0.5,1.5-1.4,2.2-2.1c3.1-2.9,6.2-4.6,10.2-2.2c1.8,1.1,5.5,4.3,5.1,6.8c-0.2,1.2-5,4.9-5.9,5.1
							c-0.7,0.1-1.6,0-2.4,0c-3.3-0.1-6.8-0.3-9.9,1c-5.3,2.3-6.6,8.2-10,12.4c-5,6.1-12.9,8.2-19.1,12.7c-4.2,3-8.2,7.3-8.7,12.7
							c0-0.2,0.1,1.9,0,2.2c0,0.2,0,0.4,0,0.6c-1.9,0.4-3.8,0.7-5.7,1.1c-0.8-0.5-1.5-3-2-3.7c-1.3-1.7-3.1-2.7-5.2-3.2
							c-5.2-1.1-9.8,1.8-12.9,5.7c-2.7,3.4-6,8.8-3.4,13.1c2.2,3.8,6.1,2.7,9.3,0.9c1.1-0.6,2.1-1.3,3.2-1.9
							c1.5-0.7,5.1-2.4,4.9,2.1c0,0.4-0.7,0.8-0.8,1.2c-0.3,1.2-1,1.6-0.8,2.9c0,0.3,0.5,0.5,0.6,0.7c-0.1-0.1,4.3,3.9,1,0.4
							c1.4,1.5,3.5,4.1,3.8,6c0.5,2.7,0,4.9,1.9,7.3c2.2,2.8,5.6,3.2,8.5,1.3c1.8-1.2,3.2-3,4.7-4.5c1.8-1.7,3.9-3.5,6.6-3.6
							c3.5-0.1,5.1,2.5,7.2,4.7c1.2,1.3,2.1,2.1,4,2.2c2.5,0.2,5.7-0.3,7.9,1.1c1.4,0.9,2.1,3,3.4,4.1c1.6,1.3,3.6,1.7,5.5,2.3
							c2.8,0.8,5,1.7,6.9,4c0.9,1.1,1.5,2.4,2.5,3.5c1.7,1.9,3.9,3.5,6.2,4.5c2.9,1.2,5,0.6,8,0.9c1.9,0.2,1-0.2,3.6,1.3
							c2.9,1.6,2,1.2,3.3,3.5c0.4,0.6,0.6,1.1,1.1,1.6s1.1,0.6,1.6,1c1.9,1.4-0.2-1.5,2.6,2.4c1.9,2.7,1.3,4.3-0.3,7.1
							c-1.4,2.5-3.1,4.6-3.7,7.5c-0.7,3.2,0.9,6.5,0.4,9.5c-1.8,9.6-11.1,3.1-15.4,9c-1,1.4-1.1,3.1-1.2,4.7
							c-0.1,5.5-1.1,9.8-5.1,14c-3.1,3.3-7.1,5.5-10.9,7.9c-2,1.3-4.7,2.7-5.8,5c-0.7,1.4-0.7,2.7-0.2,4.2c0.4,1.2,1.4,2.1,2.1,3.2
							c1.6,2.8,1.1,5.5,1.3,8.5c0.1,1.8,0.5,3.8,1.7,5.1c1.7,2,7.3,2.5,2.7,5.2c-0.4,0.2,0,0.9,0.4,0.6c0.9-0.5,3.1-1.7,3.1-2.9
							c0-1.6-1.3-1.1-2.1-1.9c-1.7-1.6-4.3-2.4-4.9-5c-0.2-1-0.2-1.8-0.2-2.8c-0.1-1.3,0.1-2.6-0.2-4c-0.2-1.3-0.6-2.3-1.3-3.4
							c-0.4-0.6-1.3-1.4-1.5-2.1c0.5-2.2,0.9-4.4,1.4-6.6c0.8-0.6,1.5-1.1,2.3-1.7c5.8-3.9,12.2-6.9,15.8-13.3c1.3-2.3,2-4.7,2-7.3
							c0.1-2.8,0.1-6.4,2.5-8.4c1.7-1.4,4.6-1.1,6.6-1.3c3.8-0.5,7.1-1.8,7.4-6.1c0.3-4.2-1.3-7.9,0.3-12.1c1.2-3.2,4.2-5.7,4.8-9.2
							c1-5.6-4.7-6.8-7.4-10.4c-1.2-1.6-1.6-2.6-3.7-3.2c-3.1-0.9-6.4,0.3-9.5-0.6c-7.3-2.1-8.8-10.1-15.8-12.2
							c-1.8-0.5-3.9-0.8-5.5-1.8c-1.7-1.1-2.7-2.8-4-4.3c-1.6-1.8-3.1-2.3-5.5-2.2c-3.6,0.1-4.6,0.1-7.9-3.2c-0.6-0.6-0.7-1-1.5-1.6
							c-1.8-1.4-4.3-2.1-6.6-1.6c-6.1,1.2-9.1,11.6-16.1,8.5c-4.8-2.1-2.3-8.5-3.9-12.3c-0.9-2-2.2-1.6-3.4-2.8
							c-2.5-2.5,0.7-3.4,0.7-5.9c0-1.4-0.4-2-1.9-2.4c-1.2-0.3-2.6,0.1-3.7,0.5c-1.3,0.5-2.5,1.4-3.8,2c-0.5,0.3-1,0.6-1.6,0.9
							c-0.7,0.3-1.3,0.6-2,0.9c-5.3-1.4-7.1-3.8-5.4-7.4c1.3-4.9,4.9-10,9.9-11.8c3.2-1.2,7.1-1.2,9.8,1.4c1.7,1.6,2.1,4,3.6,5.7
							c1.7,1.9,4.8,2.7,6.1,0c0.4-0.8,0.2-1.8,0.3-2.6c0.1-2.4,0-4.4,1.1-6.7c2.1-4.5,6.2-7.8,10.4-10.2c5.6-3.2,12-5.7,16.2-10.8
							c1.9-2.4,3-5.2,4.7-7.7c3.5-5.3,8.8-5.5,14.5-5.4c3.8,0.1,9.3,0.6,9.2-4.6c-0.1-4.6-4.4-9.4-9-10c-2-0.3-4,0.3-5.6,1.4
							c-0.7,0.5-1.2,1.2-1.8,1.8c-0.3,0.3-1.1,1.5-1.6,1.8c-2.1,1-4,0.1-5.8-0.6c-1.3-0.5-2-1.6-3.6-1.3c-3,0.5-2.7,4.7-5.1,5.7
							c-0.1,0-6.9-3.7-6.9-3.7c-0.2-0.2,0.1-1.1-0.1-1.3c-0.2-0.3-0.3-0.8-0.6-1c-1-1-2.6-0.9-3.9-1.1c-0.7-0.1-1.4-0.1-2-0.2
							c-0.5-1.9-1-3.8-1.4-5.7c0.2-0.9,2-2.4,2.6-3c1.6-1.6,3.6-3.2,5.9-3.9c4.7-1.5,9,1.5,13.7,1.5c6.5,0,8.5-6.9,14.2-8.2
							c6-1.4,9.1,4.2,13.2,7c1.2,0.8,2.5,1.4,3.9,0.8c2.7-1.2,3.6-6.4,2.4-8.7c-0.8-1.5-1.6-1.6-3.2-2c-3.5-1-4.6-1.6-7.1-3.8
							c-1.3-1.1-2.5-2-4.1-2.6c-4.6-1.7-10-0.2-14,2.3c-3,1.8-3,2.9-6.8,1.9c-4.5-1.2-2-0.7-3.4-3.3c-0.7-1.3-1.4-1.9-2.9-1.8
							c-1.6,0.1-2.7,1.4-3.5,2.6c0.1-0.2-0.8,1.5-0.7,1.4c-0.1,0.2-0.2,0.4-0.3,0.7c-1.3-0.5-2.6-0.9-4-1.4
							c-0.1-0.3,2.1-2.7,2.3-3.3c0.9-3.5-2.1-3.4-4.7-2.8c-2.7,0.7-5,2.4-7.6,3.3c-3.4,1.3-5.1,0.2-8.3-0.6c-1-0.3-1.9-0.7-3-0.3
							c-2.7,1.1-2.4,4.4-0.6,6.2c0.6,0.6,1.2,0.9,2,1.3c0.5,0.2,2.8,0.5,2.9,0.7c0,0.8,0,1.6,0.1,2.4c0.9,2,0.4,2.8-1.3,2.5
							c-3.5,1.8-10.5-2.8-13.6-4.3c-5.2-2.5-10.4-3.8-16-1.5c-6.3,2.6-11,8.1-15.1,13.3c-4.6,5.8-8.9,11.8-12.6,18.2
							c-0.8,1.4-9.2,19.9-8.9,19.9c-0.2,0-0.4,0.2-0.4,0.4c-0.1,6.7,2.8,12.6,8.3,16.5c3.9,2.7,8.8,4.2,11.7,8.2
							c2.6,3.8,1.7,6,0.7,9.8c-0.3,1.2-0.5,2.4-0.1,3.7c0.6,1.9,2.4,3.3,4.2,4.1c4.8,2.1,10.8,2.1,15.9,3.7
							c5.5,1.7,10.9,3.1,14.5,7.9c1.8,2.4,3.2,5.2,5.7,7c0.8,0.6,1.6,1,2.5,1.3c0.9,0.4,1.8,0.6,2.7,0.9c0.8,0.3,1.6,0.7,2.4,1
							c0.5,2.6,1,5.2,1.5,7.8c-1.2,4.1-7,6-9,9.8c-3,5.7,1.8,12.2,5.7,16.2c2.3,2.4,4.9,4.4,7.8,6c1.5,0.9,3.2,1.5,4.6,2.5
							c4.8,3,5.1,6.4,4.6,11.7c-0.3,3.2,0,5.3,1.2,8.3c1.2,3.1,2.2,5.6,2.1,9.1c-0.1,2.1-0.6,4.2-0.3,6.4c0.2,1.7,1,3,1.8,4.5
							c1.6,3.1,2.7,5.6,3.3,9.1c0.7,4.2,1.6,8.2,3.5,12c3.6,7.2,10.4,12.2,18.6,12C175.6,255.1,175.6,254.4,175.1,254.4L175.1,254.4
							z"/>
					</g>
				</g>
			</g>
			<g>
				<defs>
					
						<ellipse id="SVGID_35_" transform="matrix(0.7071 -0.7071 0.7071 0.7071 -36.4887 166.906)" cx="183.2" cy="127.5" rx="126.5" ry="126.5"/>
				</defs>
				<clipPath id="SVGID_36_">
					<use xlink:href="#SVGID_35_"  style="overflow:visible;"/>
				</clipPath>
				<g class="st21">
					<g>
						<path class="st15" d="M274.7,27c-1.5,5.3-5.1,7.4-9.8,9.3c-1.4,0.5-3,1.3-3.2,3c-0.1,0.9,0.1,1.6,0.7,2.2
							c0.5,0.5,1.2,0.3,1.7,0.6c1,0.7,1.8,1.8,2.5,2.6c0.5,0.6-0.2,0.6,0.4,1.1c0.8,0.5,1,0.7,2,0.9c1.8,0.2,2.5-1.7,1.2,1.9
							c-1.1,3-1.7,1.9-4,2.9c-5.9,2.4-10.5,9.1-15.2,13.2c-4.4,3.9-7.9,2.4-13,2.9c-1.5,0.2-3.2,0.6-4.3,1.7
							c-3.1,3.3,0.1,8.6,2.9,11c2.8,2.5,4.9,1.1,6.8-1.5c2.4-3.2,4.7-5.9,7.9-8.3c3.6-2.8,6-2.1,10.1-2.1c1.3,0,1.9,0,3.2-0.1
							c2.7-0.2,4.2-0.3,6.4,1.1c3.2,2,5.5,3.8,6.2,7.5c0.2,1,0.3,1.9,0.5,2.9c-0.2,0.4-0.3,0.9-0.5,1.3c0.1,0.3,0,0.5,0.1,0.8
							c0.2,0.6,0,0.5,0.3,0.8c0.9,1,2.3,0.6,3.2-0.2c0.6-0.5,0.7-1,1-1.7c0.4-0.9,0.1-1.8,1-2.1c0.8-0.2,2.2,1.8,2.6,2.2
							c0.3,0.3,0.7,0,0.6-0.4c-0.8-3.8-2.9-6.6-4.1-10.2c-0.3-0.5-0.6-0.9-1-1.3c1.3,0.4,2.5,0.9,3.8,1.3c1.4,1.3,2,4.1,3.2,5.7
							c2,2.6,4.6,5.6,7.2,2.9c0.3-0.3,0.2-0.9,0.4-1.2c2.7-4.3,2-1.9,3.6,0.4c1.2,1.7,2.9,3.2,4.8,4c4.3,1.7,8.9,0.1,11-4
							c2.6-5.4,0.8-12.4-0.9-17.8c-2-6.3-5.1-12.1-9.6-16.9c-6.2-6.6-16.1-18.3-26.3-16.6c-0.5,0.1-0.3,0.8,0.2,0.7
							c6.3-1,12.3,3.9,16.7,7.8s9.1,8.2,12.5,13c4.1,5.8,6.6,12.9,7.7,19.9c0.5,3.2,0.6,6.8-0.9,9.8c-4.7,9.1-14,2.3-16.3-4.1
							c-0.1-0.1-0.2-0.3-0.4-0.3c-1.6,0.2-1.4,0.7-2.4,2c-0.2,0.3,0,1-0.2,1.3c-3.4,4.3-6.3-0.6-7.6-3c-1.8-3.1-3.3-7.8-7.7-5.8
							c-0.2,0.1-0.2,0.4-0.1,0.6c2.1,2.6,3.8,5.4,4.8,8.6c1.1,3.3,0.3,2.1-1.5,0.1c-0.2-0.2-0.5-0.1-0.6,0.2
							c-0.4,0.9-0.7,1.8-0.9,2.7c-2.8,0.9-3.6,0.5-2.4-1.3c-0.3-1,0.2-1.6-0.1-2.7c-0.8-2.4-3.4-4-5.2-5.5c-1.9-1.5-3.7-3.4-6.3-3.5
							c-2.9-0.1-3.8,0.7-7.3,0.3c-1.6-0.2-1.7-0.7-3.4-0.6c-2.6,0.2-4.7,2.2-6.6,3.7c-1.7,1.4-3.3,2.8-4.7,4.4
							c-0.9,1-1.6,2.8-2.6,3.6c-7,6-11.7-6.3-7.6-9.3c1.7-1.3,4.3-0.9,6.2-0.7c3.7,0.2,5.9,0.2,8.8-2.1c3.2-2.4,6.1-5.6,9-8.4
							c1.2-1.1,2.4-2.3,3.7-3.4c2.7-2.3,5.3-2.3,8.4-3.2c2-0.6,5.8-2.7,3.3-5.2c-1.6-1.7-3.9,0.4-5.6-0.3c0,0-2.8-3.5-3.1-4.2
							c-2.3-0.1-2.4-1.8-0.2-4.9c0.9-0.2,1.8-0.5,2.7-0.9s1.7-0.9,2.5-1.6c2.3-1.8,3.7-4.3,4.5-7.1C275.5,26.8,274.8,26.6,274.7,27
							L274.7,27z"/>
					</g>
				</g>
			</g>
			<g>
				<defs>
					
						<ellipse id="SVGID_37_" transform="matrix(0.7071 -0.7071 0.7071 0.7071 -36.4887 166.906)" cx="183.2" cy="127.5" rx="126.5" ry="126.5"/>
				</defs>
				<clipPath id="SVGID_38_">
					<use xlink:href="#SVGID_37_"  style="overflow:visible;"/>
				</clipPath>
				<g class="st22">
					<g>
						<path class="st15" d="M318.6,96.9c-3.2-2.7-6.9-2.6-10.9-2.5c-4.2,0.1-7.3-0.4-10.8-3.1c-1.4-1.1-2.7-2.4-4.6-2.7
							c-0.9-0.1-1.7,0-2.6,0.4c-0.8,0.3-4.2,4.1-3.3,3.5c-1.9,1.2-4.6,0.9-6.7,0.5c-1.2-0.2-2.4-0.6-3.5-1c-1.9-0.3-3-1.4-3.3-3.4
							c-1-1.2-1.3-2.4-1-3.9c-0.4-1-0.5-1.5-1.3-2.2c-3.4-2.7-7.2,0.8-10.1,2.2c-5.8,2.9-12-0.6-17.9,1.7c-5.4,2.1-4.2,7.2-8.4,10.7
							c-4.6,3.8-8.6,7-11.8,12.2c-0.1,0.1-0.1,0.4,0.1,0.5c0.8,0.7,2.3,0.5,2.8,1c1.8,1.6-1.2,4.6-1.8,6.1
							c-1.3,3.4-0.3,7.4,0.9,10.7c2.7,7.4,9.1,15.7,18,14.3c2.1-0.3,3.8-1.3,5.7-2.3c1.8-1,3.5-2.3,5.6-2.6c8.4-1.4,4.4,1.2,7.4,2.6
							c1.3,0.6,2,1.1,3.5,1.4c0.7,0.1,1.5,0.1,2.3,0.2c2.8-0.2,4.4,1.3,4.9,4.7c-0.3,1-0.7,1.9-1,2.9c-0.6,3.4,1,5.3,3,7.9
							c2.3,2.9,4.7,5.8,5.9,9.5c1.8,5.4,0.2,9.3-2.5,13.9c-1.6,2.7-2,4.4-0.5,7.1c1.2,2.3,2.4,4.4,2.7,7.1c0.1,1,0,2,0.1,3
							c0.2,2.2,0.9,3.5,2.1,5.2c2.3,3.3,2.2,5.9,2.7,9.6c0.1,1.1,0.3,2.2,1,3.2c2.1,3,5.5,1.8,8.1,0.2c9.3-5.6,12.1-17.2,15.3-26.7
							c4.3-13.2,10.2-25.8,15.7-38.5c5-11.6,11.3-24.7,12.2-37.5c0.6-8.2-5.3-19.1-15-15.4c-0.4,0.2-0.3,0.9,0.2,0.7
							c4.6-1.8,9.8,0.6,12.2,4.8c2.7,4.8,2.1,10.5,0.9,15.7c-1.8,7.6-4.5,15-7.3,22.2c-5.9,14.9-13.1,29.2-18.4,44.4
							c-2.8,8-4.6,16.8-9.8,23.7c-1,1.4-2.1,2.7-3.4,3.8c-0.8,0.7-1.9,1.8-2.9,2.2c-2.6,1,0,1.5-4.6-1.3c-4.8-2.9-2.6-2.3-3.5-6.6
							c-0.2-0.8-0.4-1.5-0.7-2.2c-0.7-1.4-1.8-2.4-2.6-3.7c-1.3-2.1-1.2-4.4-1.3-6.8c-0.1-2.4-0.5-3.7-1.3-5.8
							c-1.1-2.7-2-5.8-0.6-8.6c0.7-1.4,1.7-2.5,2.2-3.9c0.8-2.1,1-4.5,0.7-6.7c-0.4-3-1.7-5.8-3.3-8.3c-2.6-4-6.9-7.3-6.1-12.5
							c0.5-3.3,2-6-2.1-7.4c-3.3-1.1-5.9-0.5-9.1-2.6c-1.8-1.2-3.1-2.3-5.4-2.2c-2.2,0.1-4.2,1.1-6,2.1c-4.9,2.7-9.5,4.4-14.8,1.3
							c-6.7-3.9-14.1-17-8.8-24.3c1.6-2.3,3.3-2.7,1.3-4.9c-1-1.1-2.4,1.5-2.8-1.9c-0.1-1.2,3.1-4.1,3.9-5c2.6-2.7,5.8-4.4,8.6-6.7
							c1.4-1.2,1.4-1.8,2.1-3.5c1.6-4.3,2.4-5.8,6.8-6.5c1.9-0.3,3.8-0.1,5.8,0c3.2,0.2,6.2,0.5,9.2-0.9c1.5-0.7,2.8-2.1,4.4-2.6
							c9.4-3,5.6,2.9,6.6,5.7c1.4,3.7,7.6,5,10.9,5.1c2.3,0.1,3.7-0.4,5.6-1.5c1.8-1.1,4-3,6.5-2.4c1.3,0.3,2.7,2.3,3.9,3.1
							c6.1,4.1,14.3-0.7,19.9,4.2C318.4,97.8,318.9,97.2,318.6,96.9L318.6,96.9z"/>
					</g>
				</g>
			</g>
			<g>
				<defs>
					
						<ellipse id="SVGID_39_" transform="matrix(0.7071 -0.7071 0.7071 0.7071 -36.4887 166.906)" cx="183.2" cy="127.5" rx="126.5" ry="126.5"/>
				</defs>
				<clipPath id="SVGID_40_">
					<use xlink:href="#SVGID_39_"  style="overflow:visible;"/>
				</clipPath>
				<g class="st23">
					<g>
						<path class="st15" d="M255.9,54.1c-0.1,1.7-1,2.2-2.6,1.6c-1.6,0.6-2.3,0.2-2-1.3c-0.3-1-0.2-2.7-0.3-3.7
							c-0.2-2.3-0.4-4.6-0.6-6.9c-0.1-0.6-0.1-1.2-0.2-1.9c1.1,0.2,2.2,0.4,3.3,0.5c0.5,0.4,1.3,2.4,1.6,3c1.5,3.2,2.4,6.7,0.6,10
							c-0.2,0.4,0.4,0.8,0.6,0.4c2.5-4.5,0.4-9.7-2.1-13.8c-0.9-1.5-3.5-3.8-4.6-1.2c-0.5,1.2,0.2,3.5,0.3,4.7
							c0.1,1.7,0.3,3.3,0.4,5c0.2,1.7-0.2,4.9,0.8,6.5c2,3.1,4.9-0.9,5.7-2.8C256.7,53.8,256,53.6,255.9,54.1L255.9,54.1z"/>
					</g>
				</g>
			</g>
			<g>
				<defs>
					
						<ellipse id="SVGID_41_" transform="matrix(0.7071 -0.7071 0.7071 0.7071 -36.4887 166.906)" cx="183.2" cy="127.5" rx="126.5" ry="126.5"/>
				</defs>
				<clipPath id="SVGID_42_">
					<use xlink:href="#SVGID_41_"  style="overflow:visible;"/>
				</clipPath>
				<g class="st24">
					<g>
						<path class="st15" d="M246.2,50c-2.1-0.1-3.7,2.1-3.5,4.1c0.3,2.2,2.5,3,4.4,2.3c1.8-0.7,2.9-2.8,1.8-4.6
							c-1.1-1.7-3.6-2.3-5.3-1c-0.4,0.3,0.2,0.8,0.5,0.5c1.3-1,3.3-0.4,4.1,0.9c1,1.5-0.1,3.1-1.6,3.5c-1.5,0.5-3.2-0.2-3.3-2
							c0-1.5,1.2-3,2.7-3C246.7,50.7,246.7,50,246.2,50L246.2,50z"/>
					</g>
				</g>
			</g>
			<g>
				
					<ellipse id="SVGID_3_" transform="matrix(0.7071 -0.7071 0.7071 0.7071 -36.4887 166.906)" class="st25" cx="183.2" cy="127.5" rx="126.5" ry="126.5"/>
			</g>
		</g>
	</g>
	<path class="st26" d="M149.7,301.3c0,0-64.7-3.7-41.9-71c0,0,32.6,38.9,54.1,46.5L149.7,301.3z"/>
	<path class="st27" d="M247.5,266.3c0,0,17.8-23.4,25.1-47.1c0,0,28.2,15.2,7.6,52c-20.6,36.8-42.6,24.3-42.6,24.3L247.5,266.3z"/>
	<path class="st28" d="M306,399.1c0,8.8-54.5,16-121.8,16c-19.8,0-41.7-3.9-58.3-5c-39.6-2.6-63.3-4.8-63.5-11
		c-0.5-15,54.5-16,121.8-16c24.8,0,43.5,3.3,62.7,5C279.9,391,306,393.5,306,399.1z"/>
	<path class="st29" d="M143.7,382.2c0,0-0.9,7.5,7.7,13.5c8.5,6.1,14.5,7.1,14.5,7.1l-2.7-6.6l11,6.3l-3.9-9.7l7.1,0.9
		c0,0-7.7-9.4-11.9-9.9s-8.1-1.7-13.5,0.6C146.6,386.7,143.7,382.2,143.7,382.2z"/>
	<path class="st29" d="M189.5,380.4c0,0-1.9,7.3,5.8,14.4c7.7,7.1,13.4,9,13.4,9l-1.8-6.9l10.1,7.8l-2.6-10.2l6.9,1.9
		c0,0-6.4-10.4-10.5-11.4s-7.8-2.7-13.4-1.2C191.7,385.3,189.5,380.4,189.5,380.4z"/>
	<path class="st27" d="M254.4,256.2c0,0-2.4,4.9-4.4,2.9s1.6,5.5,1.6,5.5l6.4-1.5L254.4,256.2z"/>
	<path class="st26" d="M208.3,385c11-5.1,9.7-19,9.7-19s10-26.4,19.8-46.9c8.4-17.7,14.6-50.4,14.6-50.4c-1.2-12-4.6-25.7-14.4-41.7
		c0,0-8.5-17.3-37.9-13.9c-29.4,3.4-42.1,14.3-48.6,37.1s-4,43.4-4,43.4s2.6,17.3-7.9,47.4c0,0-7.2,20.2-4.4,37.4
		c0,0,7.7,12.8,17.7,8.1c2.7-1.3,2.7-0.6,5.1-1.8c1.4-0.7,2.5-0.8,3.8-1.4c4.9-2.1,7.5-2.2,13.1-1.9c9.7,0.6,22.2,3.2,22.2,3.2l0,0
		h0.1C197.1,384.8,201.9,386.6,208.3,385z"/>
	<path class="st1" d="M252.3,268.7c0,0-6.2,32.6-14.6,50.4c-9.8,20.6-19.4,46.5-19.4,46.5s0.9,14.2-10.1,19.4
		c-6.3,1.6-11.2-0.2-11.2-0.2c-0.1,0-0.1,0-0.1,0l0,0c0,0-12.5-2.7-22.2-3.2c-5.6-0.3-8.2-0.3-13.1,1.9c-1.3,0.6,0-1.2-1.4-0.5
		c-2.4,1.1-4.8,2.4-7.5,3.7c0,0,2-18.4,11.9-35.2c7.4-12.6,15.5-60.6,15.5-57.1c0,0-0.2-1.2,0.3-2.8c2.2-7.6,10.3-29.8,22.2-28.6
		c14.3,1.5,21.4,9.5,32.5,3.9C246.4,261.1,252.3,268.7,252.3,268.7"/>
	<path class="st30" d="M252.3,268.7"/>
	<path class="st30" d="M152.8,386.5"/>
	<path class="st30" d="M244,303c-1.7,6-4,11.3-6.3,16c-9.8,20.6-19.4,46.5-19.4,46.5s0.9,14.2-10.1,19.4c-6.3,1.6-11.2-0.2-11.2-0.2
		c-0.1,0-0.1,0-0.1,0l0,0c0,0-12.5-2.7-22.2-3.2c-5.6-0.3-17.1,2.7-22,4.9"/>
	<path class="st26" d="M253.7,300.5L253.7,300.5"/>
	
		<ellipse transform="matrix(0.1271 -0.9919 0.9919 0.1271 -62.9612 397.0145)" class="st1" cx="194.1" cy="234.3" rx="8.5" ry="8.1"/>
	<ellipse transform="matrix(0.1271 -0.9919 0.9919 0.1271 -58.1258 396.2192)" cx="196.1" cy="231.1" rx="3.6" ry="3.5"/>
	<path class="st26" d="M202,227.7c-1-1.4-2.3-2.6-4-3.3c-4.6-1.9-10.1,0.4-12.1,5.3c0,0,11.2-3.4,16.4-1.3
		C202.3,228.3,202.4,228.3,202,227.7z"/>
	
		<ellipse transform="matrix(0.1271 -0.9919 0.9919 0.1271 -34.2584 414.368)" class="st1" cx="218.3" cy="226.6" rx="6.9" ry="6.6"/>
	<ellipse transform="matrix(0.1271 -0.9919 0.9919 0.1271 -30.8659 412.4675)" cx="218.9" cy="223.8" rx="2.9" ry="2.7"/>
	<path class="st26" d="M222.8,220.6c-1-1-2.3-1.7-3.8-2c-4-0.7-7.9,2.3-8.7,6.8c0,0,8.3-5,12.8-4.4C223.2,221,223.3,221,222.8,220.6
		z"/>
	<path class="st29" d="M206.8,232.1l34.1-12.5l-15,20.5c0,0-2,1.5-7,2.6C213.8,243.8,208.5,243.3,206.8,232.1z"/>
	<path class="st31" d="M208.9,238.2c0.7,0,1.5-0.2,2.2-0.4s1.5-0.4,2.2-0.7c1.5-0.5,2.9-1.1,4.3-1.8c2.8-1.4,5.4-3,8-4.8
		c1.3-0.9,2.5-1.8,3.8-2.8l3.8-2.8l3.8-2.7c1.3-0.9,2.6-1.8,3.9-2.6c-1.3,0.8-2.6,1.8-3.8,2.7l-3.7,2.9l-3.7,2.9
		c-1.2,1-2.5,1.9-3.7,2.9c-2.5,1.9-5.2,3.6-8,5.1c-1.4,0.7-2.8,1.4-4.3,2c-0.7,0.3-1.5,0.5-2.3,0.8c-0.8,0.2-1.5,0.4-2.4,0.5
		L208.9,238.2z"/>
	<path class="st32" d="M200.1,227.8c-1.6,0-3.1,0.1-4.7,0.4c-1.6,0.2-3.1,0.5-4.6,0.8c-0.8,0.2-1.5,0.4-2.3,0.6
		c-0.8,0.2-1.5,0.4-2.3,0.6c-0.4,0.1-0.8,0.2-1.1,0.2c-0.4,0.1-0.8,0.2-1.2,0.2c-0.8,0.2-1.6,0.3-2.4,0.4v-0.1
		c1.4-0.9,2.8-1.5,4.4-2c1.5-0.5,3.1-0.7,4.7-1c1.6-0.2,3.2-0.4,4.8-0.4s3.2,0,4.8,0.2L200.1,227.8z"/>
	<path class="st32" d="M211.2,224.6c1.1-0.5,2.1-1,3.2-1.5c1.1-0.5,2.2-0.9,3.3-1.4c1.1-0.4,2.2-0.9,3.4-1.2s2.4-0.5,3.6-0.4v0.1
		c-1.1,0.3-2.2,0.7-3.4,1.1c-1.1,0.4-2.3,0.7-3.4,1c-1.1,0.4-2.2,0.7-3.4,1.2C213.5,223.8,212.4,224.3,211.2,224.6L211.2,224.6z"/>
	<g>
		<g class="st33">
			<polyline class="st1" points="13.7,92.1 14.8,94.8 23.4,95.6 25.2,93 			"/>
			<path class="st1" d="M11.7,91.8c0,0-0.2-0.9-0.5-2.7c-0.3-1.8-0.7-4-1.1-6.5c-0.4-2.5-0.7-5.1-1-7.7S8.8,70.1,9,68.4
				c0.1-1.5,0.4-2.9,0.7-4.3s0.6-2.6,1-3.8l23.1,2.3c0.1,1.2,0.2,2.6,0.2,3.9c0,1.4,0,2.8-0.2,4.3c-0.2,1.7-0.6,3.8-1.4,6.3
				c-0.8,2.5-1.6,5-2.5,7.4s-1.6,4.4-2.3,6.2c-0.7,1.7-1,2.6-1,2.6L11.7,91.8z"/>
			<path class="st1" d="M23.3,46.3l1-10h0.4l-0.8,10.1c0.5,0.4,1.8,1,2.6,1.9s1.7,2.1,2.6,3.4c0.9,1.4,1.8,3,2.6,4.9s1.5,4,1.9,6.4
				l-23.2-2.3c0.9-2.2,1.9-4.1,3-5.8c1.1-1.6,2.3-3,3.4-4.2c1.1-1.2,2.2-2.1,3.2-2.9C21.1,47.2,22.7,46.7,23.3,46.3z"/>
			<path class="st1" d="M21.8,65.1c-1.3-0.1-2.4,0.2-3.4,1s-1.6,1.9-1.7,3.2c-0.1,1.3,0.2,2.5,1,3.5s1.9,1.6,3.2,1.7
				s2.4-0.2,3.4-1.1s1.6-1.9,1.7-3.2s-0.2-2.4-1-3.4S23.1,65.3,21.8,65.1z"/>
			<path class="st34" d="M29.9,98.2c0,0,0-0.8,0.1-2.4c0-1.6-0.8-3.6-2.5-6.1c1.2-2.5,2.2-4.9,3-7.2c0.8-2.3,1.4-4.4,1.9-6.2
				c0.5-1.8,0.8-3.2,1-4.3c0.2-1.1,0.3-1.6,0.3-1.6s1.2,0.7,3.6,2.2s3.4,4,3,7.8c-0.3,3.2-1,5.9-2.2,8.2c-1.1,2.3-2.3,4.1-3.5,5.5
				s-2.3,2.5-3.3,3.1S29.9,98.2,29.9,98.2z"/>
			<path class="st34" d="M7.4,96c0,0-0.4-0.4-1.2-1.2c-0.8-0.8-1.7-2.1-2.6-3.7c-0.9-1.6-1.7-3.7-2.4-6.1s-0.8-5.2-0.5-8.4
				c0.4-3.7,1.9-6.1,4.5-7c2.6-1,3.9-1.4,3.9-1.4s0,0.5,0,1.6s0,2.6,0.1,4.4c0.1,1.9,0.3,4,0.6,6.4s0.8,5,1.5,7.6
				c-2.1,2.1-3.3,3.9-3.6,5.5S7.4,96,7.4,96z"/>
		</g>
		<circle class="st1" cx="21.2" cy="69.9" r="4.7"/>
		<path class="st1" d="M14.7,99c0,0-6.6,6.5-4,16.3c0,0,1.8-5.8,3.1-6.8c0,0-1.5,3.4,1.4,9.7c0,0,4.2-3.4,4.6-8.6
			c0,0,1.5,4.5,0.8,7.4c0,0,2.4-5.1,2.8-8.7c0,0,1.1,1.3,0.8,3.7c0,0,2-8.1-1.2-12C19.8,95.9,14.7,99,14.7,99z"/>
	</g>
	<g>
		<g class="st33">
			<polyline class="st35" points="13.7,92.1 14.8,94.8 23.4,95.6 25.2,93 			"/>
			<path class="st36" d="M11.7,91.8c0,0-0.2-0.9-0.5-2.7c-0.3-1.8-0.7-4-1.1-6.5c-0.4-2.5-0.7-5.1-1-7.7S8.8,70.1,9,68.4
				c0.1-1.5,0.4-2.9,0.7-4.3s0.6-2.6,1-3.8l23.1,2.3c0.1,1.2,0.2,2.6,0.2,3.9c0,1.4,0,2.8-0.2,4.3c-0.2,1.7-0.6,3.8-1.4,6.3
				c-0.8,2.5-1.6,5-2.5,7.4s-1.6,4.4-2.3,6.2c-0.7,1.7-1,2.6-1,2.6L11.7,91.8z"/>
			<path class="st37" d="M23.3,46.3l1-10h0.4l-0.8,10.1c0.5,0.4,1.8,1,2.6,1.9s1.7,2.1,2.6,3.4c0.9,1.4,1.8,3,2.6,4.9s1.5,4,1.9,6.4
				l-23.2-2.3c0.9-2.2,1.9-4.1,3-5.8c1.1-1.6,2.3-3,3.4-4.2c1.1-1.2,2.2-2.1,3.2-2.9C21.1,47.2,22.7,46.7,23.3,46.3z"/>
			<path class="st29" d="M21.8,65.1c-1.3-0.1-2.4,0.2-3.4,1s-1.6,1.9-1.7,3.2c-0.1,1.3,0.2,2.5,1,3.5s1.9,1.6,3.2,1.7
				s2.4-0.2,3.4-1.1s1.6-1.9,1.7-3.2s-0.2-2.4-1-3.4S23.1,65.3,21.8,65.1z"/>
			<path class="st38" d="M29.9,98.2c0,0,0-0.8,0.1-2.4c0-1.6-0.8-3.6-2.5-6.1c1.2-2.5,2.2-4.9,3-7.2c0.8-2.3,1.4-4.4,1.9-6.2
				c0.5-1.8,0.8-3.2,1-4.3c0.2-1.1,0.3-1.6,0.3-1.6s1.2,0.7,3.6,2.2s3.4,4,3,7.8c-0.3,3.2-1,5.9-2.2,8.2c-1.1,2.3-2.3,4.1-3.5,5.5
				s-2.3,2.5-3.3,3.1S29.9,98.2,29.9,98.2z"/>
			<path class="st38" d="M7.4,96c0,0-0.4-0.4-1.2-1.2c-0.8-0.8-1.7-2.1-2.6-3.7c-0.9-1.6-1.7-3.7-2.4-6.1s-0.8-5.2-0.5-8.4
				c0.4-3.7,1.9-6.1,4.5-7c2.6-1,3.9-1.4,3.9-1.4s0,0.5,0,1.6s0,2.6,0.1,4.4c0.1,1.9,0.3,4,0.6,6.4s0.8,5,1.5,7.6
				c-2.1,2.1-3.3,3.9-3.6,5.5S7.4,96,7.4,96z"/>
		</g>
		<circle class="st29" cx="21.2" cy="69.9" r="4.7"/>
		<path class="st29" d="M14.7,99c0,0-6.6,6.5-4,16.3c0,0,1.8-5.8,3.1-6.8c0,0-1.5,3.4,1.4,9.7c0,0,4.2-3.4,4.6-8.6
			c0,0,1.5,4.5,0.8,7.4c0,0,2.4-5.1,2.8-8.7c0,0,1.1,1.3,0.8,3.7c0,0,2-8.1-1.2-12C19.8,95.9,14.7,99,14.7,99z"/>
	</g>
	<g>
		<g class="st33">
			<polyline class="st1" points="333,57.5 335,59.3 342.4,56.5 342.9,53.7 			"/>
			<path class="st1" d="M331.3,58.1c0,0-0.5-0.7-1.5-2s-2.2-3-3.5-4.9s-2.7-3.9-3.9-6c-1.3-2.1-2.2-3.9-2.7-5.3
				c-0.5-1.3-0.9-2.5-1.2-3.8c-0.3-1.2-0.5-2.4-0.7-3.6l19.9-7.4c0.6,1,1.2,2,1.8,3.2c0.6,1.1,1.1,2.3,1.6,3.6
				c0.5,1.4,1,3.4,1.4,5.8s0.7,4.8,0.9,7.1s0.4,4.3,0.5,6s0.2,2.5,0.2,2.5L331.3,58.1z"/>
			<path class="st1" d="M322.6,15.9l-3.2-8.7l0.4-0.1l3.3,8.6c0.6,0.2,1.9,0.1,2.9,0.5c1.1,0.4,2.3,1,3.6,1.8c1.3,0.8,2.7,1.8,4.1,3
				s2.8,2.7,4.1,4.6L317.7,33c-0.2-2.2-0.1-4.2,0.2-6c0.3-1.8,0.7-3.4,1.1-4.8s1-2.6,1.5-3.6S322.2,16.5,322.6,15.9z"/>
			<path class="st1" d="M328.9,32c-1.1,0.4-1.9,1.2-2.4,2.2c-0.5,1.1-0.5,2.2-0.1,3.3s1.2,1.9,2.3,2.4s2.2,0.6,3.3,0.2
				s1.9-1.2,2.4-2.3c0.5-1.1,0.5-2.2,0.1-3.3c-0.4-1.1-1.2-1.9-2.2-2.4C331.1,31.7,330,31.6,328.9,32z"/>
			<path class="st34" d="M348.9,56c0,0-0.3-0.7-0.9-2s-2.1-2.7-4.5-4c0-2.5-0.1-4.9-0.4-7.1s-0.6-4.2-0.9-5.8c-0.3-1.7-0.6-3-0.9-4
				s-0.4-1.5-0.4-1.5s1.3,0.1,3.8,0.4c2.6,0.2,4.4,2,5.6,5.2c1,2.8,1.5,5.3,1.5,7.6c0,2.3-0.3,4.3-0.7,6c-0.4,1.7-0.9,3-1.4,3.9
				S348.9,56,348.9,56z"/>
			<path class="st34" d="M329.3,63.2c0,0-0.5-0.2-1.5-0.5c-1-0.4-2.2-1-3.6-2s-2.9-2.4-4.4-4.1s-2.8-4-3.8-6.8
				c-1.2-3.2-0.9-5.8,0.9-7.6s2.7-2.8,2.7-2.8s0.2,0.5,0.6,1.4s1.1,2.1,1.9,3.6s1.9,3.2,3.1,5c1.2,1.9,2.7,3.8,4.3,5.7
				c-0.9,2.5-1.2,4.5-0.8,6C329.1,62.5,329.3,63.2,329.3,63.2z"/>
		</g>
		<circle class="st1" cx="330.3" cy="36.2" r="4.3"/>
		<path class="st1" d="M336.6,62.8c0,0-2.8,8,3.2,15c0,0-0.9-5.5-0.2-6.9c0,0,0.1,3.4,5,7.4c0,0,2.1-4.5,0.3-8.9
			c0,0,3.1,3.1,3.6,5.8c0,0-0.1-5.2-1.2-8.3c0,0,1.4,0.6,2.1,2.7c0,0-1.6-7.5-5.8-9.4S336.6,62.8,336.6,62.8z"/>
	</g>
	<g>
		<g class="st33">
			<polyline class="st35" points="333,57.5 335,59.3 342.4,56.5 342.9,53.7 			"/>
			<path class="st36" d="M331.3,58.1c0,0-0.5-0.7-1.5-2s-2.2-3-3.5-4.9s-2.7-3.9-3.9-6c-1.3-2.1-2.2-3.9-2.7-5.3
				c-0.5-1.3-0.9-2.5-1.2-3.8c-0.3-1.2-0.5-2.4-0.7-3.6l19.9-7.4c0.6,1,1.2,2,1.8,3.2c0.6,1.1,1.1,2.3,1.6,3.6
				c0.5,1.4,1,3.4,1.4,5.8s0.7,4.8,0.9,7.1s0.4,4.3,0.5,6s0.2,2.5,0.2,2.5L331.3,58.1z"/>
			<path class="st37" d="M322.6,15.9l-3.2-8.7l0.4-0.1l3.3,8.6c0.6,0.2,1.9,0.1,2.9,0.5c1.1,0.4,2.3,1,3.6,1.8
				c1.3,0.8,2.7,1.8,4.1,3s2.8,2.7,4.1,4.6L317.7,33c-0.2-2.2-0.1-4.2,0.2-6c0.3-1.8,0.7-3.4,1.1-4.8s1-2.6,1.5-3.6
				S322.2,16.5,322.6,15.9z"/>
			<path class="st29" d="M328.9,32c-1.1,0.4-1.9,1.2-2.4,2.2c-0.5,1.1-0.5,2.2-0.1,3.3s1.2,1.9,2.3,2.4s2.2,0.6,3.3,0.2
				s1.9-1.2,2.4-2.3c0.5-1.1,0.5-2.2,0.1-3.3c-0.4-1.1-1.2-1.9-2.2-2.4C331.1,31.7,330,31.6,328.9,32z"/>
			<path class="st38" d="M348.9,56c0,0-0.3-0.7-0.9-2s-2.1-2.7-4.5-4c0-2.5-0.1-4.9-0.4-7.1s-0.6-4.2-0.9-5.8c-0.3-1.7-0.6-3-0.9-4
				s-0.4-1.5-0.4-1.5s1.3,0.1,3.8,0.4c2.6,0.2,4.4,2,5.6,5.2c1,2.8,1.5,5.3,1.5,7.6c0,2.3-0.3,4.3-0.7,6c-0.4,1.7-0.9,3-1.4,3.9
				S348.9,56,348.9,56z"/>
			<path class="st38" d="M329.3,63.2c0,0-0.5-0.2-1.5-0.5c-1-0.4-2.2-1-3.6-2s-2.9-2.4-4.4-4.1s-2.8-4-3.8-6.8
				c-1.2-3.2-0.9-5.8,0.9-7.6s2.7-2.8,2.7-2.8s0.2,0.5,0.6,1.4s1.1,2.1,1.9,3.6s1.9,3.2,3.1,5c1.2,1.9,2.7,3.8,4.3,5.7
				c-0.9,2.5-1.2,4.5-0.8,6C329.1,62.5,329.3,63.2,329.3,63.2z"/>
		</g>
		<circle class="st29" cx="330.3" cy="36.2" r="4.3"/>
		<path class="st29" d="M336.6,62.8c0,0-2.8,8,3.2,15c0,0-0.9-5.5-0.2-6.9c0,0,0.1,3.4,5,7.4c0,0,2.1-4.5,0.3-8.9
			c0,0,3.1,3.1,3.6,5.8c0,0-0.1-5.2-1.2-8.3c0,0,1.4,0.6,2.1,2.7c0,0-1.6-7.5-5.8-9.4S336.6,62.8,336.6,62.8z"/>
	</g>
	<path class="st39" d="M347.2,86c0,0,1.9,33.9-35.7,47c-37.6,13.2-123.5,29.5-131.9,60.5"/>
	<path class="st40" d="M17.5,125.6c0,0,31.2,74,132.7,39.2s159.4-13.6,163.2,8c3.8,21.6-9.7,29.2-35.7,41.4"/>
	<path class="st26" d="M139,262.1c0,0,7.7,7.4,9.3,2.7c1.7-4.7,2.7,2.3,2.7,2.3v7h-11L139,262.1z"/>
</g>
</svg>
