<?xml version="1.0" encoding="utf-8"?>
<!-- Generator: Adobe Illustrator 24.3.0, SVG Export Plug-In . SVG Version: 6.00 Build 0)  -->
<svg version="1.1" id="Layer_1" xmlns="http://www.w3.org/2000/svg" xmlns:xlink="http://www.w3.org/1999/xlink" x="0px" y="0px"
	 viewBox="0 0 401.6 502.9" style="enable-background:new 0 0 401.6 502.9;" xml:space="preserve">
<style type="text/css">
	.st0{fill-rule:evenodd;clip-rule:evenodd;fill:#FCBF10;}
	.st1{fill-rule:evenodd;clip-rule:evenodd;fill:#2E2F5B;}
	.st2{fill-rule:evenodd;clip-rule:evenodd;fill:#FFFFFF;}
	.st3{fill-rule:evenodd;clip-rule:evenodd;}
	.st4{fill-rule:evenodd;clip-rule:evenodd;fill:#E6E5E7;}
	.st5{fill-rule:evenodd;clip-rule:evenodd;fill:#1A1D39;}
	.st6{fill-rule:evenodd;clip-rule:evenodd;fill:#C9952C;}
	
		.st7{opacity:0.8739;fill-rule:evenodd;clip-rule:evenodd;fill:#FFFFFF;stroke:#2E2F5B;stroke-miterlimit:10;enable-background:new    ;}
	.st8{fill-rule:evenodd;clip-rule:evenodd;fill:#FFFFFF;stroke:#2E2F5B;stroke-miterlimit:10;}
	.st9{opacity:0.8605;fill:#FFFFFF;stroke:#2E2F5B;stroke-miterlimit:10;enable-background:new    ;}
	.st10{opacity:0.2023;}
	.st11{fill:#2E2F5B;}
</style>
<g>
	<g>
		<g>
			<g transform="translate(-1087.000000, -5778.000000)">
				
					<g id="Group-37" transform="translate(1128.000000, 5850.500000) scale(-1, 1) translate(-1128.000000, -5850.500000) translate(1087.000000, 5778.000000)">
					<path id="Fill-1" class="st0" d="M20.7,426.4c0,0,7.8-17.4,16.5-21.4L32,423.4l16-7.2l-10.5,20.4l10.9-4.8
						c0,0-21.7,41.8-29.6,30.1C11,450.3,20.7,426.4,20.7,426.4"/>
					<g id="Group-5" transform="translate(18.837838, 136.145038)">
						<g id="Clip-4">
						</g>
						<path id="Fill-3" class="st0" d="M-36.6,348.1c0,0-4.3,23.1,19.9,10.4c24.2-12.7,39.5-26.2,39.5-26.2l-16.4,0.1l15.3-11.9
							C21.8,320.5-5.1,317.4-36.6,348.1"/>
					</g>
					<g id="Group-10" transform="translate(0.000000, 16.603053)">
						<path id="Fill-8_2_" class="st1" d="M-22.4,166.1c0,0-90-8.5-89.1,74.6c0.8,95.3,5.3,108-6.1,163.9c-10.8,47.1,1,81.7,1,81.7
							s9.5-7.9,51.8-7.5c35.8,0.3,61.9-22.4,80.9-45.8c19-23.4,25.7-108.7,24.2-130.7s0.5-49.8,0.5-49.8s-4.2-81.8-61.9-86.3
							L-22.4,166.1z"/>
					</g>
					<path id="Fill-15" class="st2" d="M26.5,227.3c1.4,7-3.3,13.7-10.4,14.9c-7.1,1.2-13.9-3.5-15.3-10.5
						c-1.4-7,3.3-13.7,10.4-14.9C18.3,215.6,25.1,220.3,26.5,227.3"/>
					<path id="Fill-17" class="st3" d="M25.3,224.8c0.3,2.9-1.8,5.5-4.7,5.7c-2.9,0.3-5.5-1.9-5.8-4.8c-0.3-2.9,1.8-5.5,4.7-5.7
						C22.5,219.7,25,221.9,25.3,224.8"/>
					<path id="Fill-19" class="st2" d="M-40,490.1c24.4,3.3,45.2-21,58.9-42.4c13.7-21.5,20.3-103.8,20-125.7
						c-0.1-8.6,1.9-18.7,2.3-26.9c0,0-8.6,5-25.1-1.2c-16.4-6.2-32.1,2.5-38.3,28.8s11.5,45,5.5,84.3C-23.8,454-40,490.1-40,490.1"
						/>
					<path id="Fill-21" class="st2" d="M-40,490.4c24.4,0.3,47.2-18,61.1-39.4c13.8-21.4,20.4-103.8,20.1-125.6
						c-0.1-8.6-0.4-22.3,0-30.5"/>
					<path id="Fill-23" class="st4" d="M-39.3,490.4c-0.2,0-0.5,0-0.7,0v-1c0.2,0,0.5,0,0.7,0c25.4,0,47.4-20.1,59.6-39.1
						c13.6-21.1,20.2-103.2,19.9-125v-3c-0.1-8.5-0.3-20.2,0-27.5h1c-0.3,7.3-0.2,19,0,27.5v3c0.3,21.9-6.4,104.3-20.1,125.6
						C8.8,470.1-13.5,490.4-39.3,490.4"/>
					<path id="Fill-25" class="st5" d="M6.4,211.1c-4.8,0.2-9.3,2.6-13.1,5.7c-1.8,1.7-3.5,3.5-5,5.5c-1.7,1.8-3.1,3.9-4.9,5.9
						l-0.2-0.1c0.8-2.6,2.1-5,3.6-7.2c1.6-2.1,3.5-4,5.6-5.5c4.2-3,9.1-5,14-4.5L6.4,211.1z"/>
					<path id="Fill-27" class="st1" d="M5.6,244.3c0,0,12-7.8,20.5-6.3S21.7,251.3,5.6,244.3"/>
					<path id="Fill-29" class="st0" d="M32,230.4l49.9-2.2l-38,30C43.9,258.2,15.3,270.7,32,230.4"/>
					<path id="Fill-33" class="st6" d="M27.4,250c4.3,0.5,9.5-0.3,14.1-1.7c4.7-1.4,9.2-3.5,13.6-6.1c4.2-2.6,8.5-5.6,12.9-8.1
						c4.4-2.4,8.9-5.3,14-5.8c-5,0.9-9.2,4.1-13.4,6.7c-4.2,2.8-8.1,6-12.3,9c-4.2,2.9-8.8,5.5-13.7,7.3s-9.9,3.2-15.7,2.9L27.4,250
						z"/>
					<path id="Fill-35" class="st1" d="M-26.8,323.8c0,0,29.2,49.6,70.1,42.7c0,0-35.5,56.5-97.1,20.8
						C-115.4,351.5-26.8,323.8-26.8,323.8"/>
					<path class="st1" d="M-121.7,474.7c0,0,0.2,19.1,4.9,28.1c0,0,7.8-6.1,43.7-7.5C-37.3,494-121.7,474.7-121.7,474.7z"/>
					<path class="st1" d="M19.2,215.4c0,0-16.5,5.3-21.2,10.9C-6.8,231.8,5.7,207.2,19.2,215.4z"/>
					<circle class="st7" cx="-126.1" cy="241.5" r="9"/>
					<circle class="st7" cx="-124.1" cy="197.5" r="11"/>
					<circle class="st8" cx="-86.1" cy="253.5" r="5"/>
				</g>
				<path class="st1" d="M1167.8,5967.2l66.2-1c0,0-20.8-8.3-46.9-5.2C1187.1,5961,1177.8,5961.9,1167.8,5967.2z"/>
			</g>
		</g>
	</g>
	<path class="st9" d="M401.1,83.5c0-23.7-21-43-47-43c-5.5,0-10.9,0.9-15.8,2.5c-4.4-24.1-27.5-42.5-55.2-42.5
		c-25.5,0-47,15.6-53.8,36.8c-4.7-1.8-9.8-2.8-15.2-2.8c-21.5,0-39,16-39,35.7c0,15.5,10.8,28.6,25.9,33.6c-5,5.6-7.9,12.4-7.9,19.7
		c0,19.3,20.1,35,45,35c9.7,0,18.6-2.4,25.9-6.4c10.8,8.8,26.5,14.4,44.1,14.4c32,0,58-18.5,59-41.7
		C386.8,119.7,401.1,103.2,401.1,83.5z"/>
	<g class="st10">
		<path class="st11" d="M272.2,105.8c-0.4-4.3-0.2-7.9,0.6-10.9c0.8-3,1.9-5.6,3.4-7.8c1.4-2.2,3.1-4.1,4.9-5.7s3.6-3.1,5.2-4.6
			s2.9-3,4-4.6s1.6-3.5,1.6-5.7c0-2.9-0.8-5.2-2.4-6.9c-1.6-1.7-4.5-2.6-8.6-2.6c-1.3,0-2.7,0.1-4.2,0.4s-3,0.7-4.4,1.2
			c-1.5,0.5-2.9,1.1-4.2,1.8c-1.4,0.7-2.6,1.4-3.6,2.2l-6.2-11.8c3.1-2.1,6.7-3.9,10.8-5.3c4.1-1.4,9-2.1,14.7-2.1
			c7.7,0,13.7,1.9,18.1,5.6c4.3,3.7,6.5,8.8,6.5,15.1c0,4.2-0.6,7.7-1.7,10.4c-1.1,2.8-2.5,5.1-4.1,7s-3.4,3.6-5.4,5.1
			s-3.8,3.1-5.4,4.7c-1.6,1.7-3,3.6-4.2,5.8c-1.2,2.2-1.7,5-1.7,8.5h-13.7V105.8z M269.7,123.2c0-2.9,0.9-5.1,2.7-6.8
			c1.8-1.7,4.2-2.5,7.1-2.5c3.1,0,5.6,0.8,7.4,2.5s2.7,4,2.7,6.8c0,2.9-0.9,5.2-2.7,6.9c-1.8,1.7-4.3,2.6-7.4,2.6
			c-3,0-5.3-0.9-7.1-2.6C270.6,128.4,269.7,126.1,269.7,123.2z"/>
		<g id="Clip-9">
		</g>
	</g>
</g>
</svg>
